<svg height="800" viewBox="0 -8 72 72" width="800" xmlns="http://www.w3.org/2000/svg"><path d="m252.60111 114.75h-55.96c-13.98 0-30.04855 6.56011-30.103 20.54l-.45428 116.63639s76.90609-66.19383 123.33581-64.85308c41.90115 1.20998 107.74328 64.85308 107.74328 64.85308l-1.12581-116.63639c-.13494-13.97935-6.56-20.54-20.54-20.54h-55.96-9.562-47.812zm57.375-95.625c0-10.184-11.168-19.125-23.906-19.125s-23.906 8.941-23.906 19.125v76.5h47.812zm-213.908617 346.7246c-5.855023-21.4205 1.60399-44.27027 18.969477-58.11073l26.04964-18.96948 111.54588-81.08785c6.7896-4.41164 14.52489-7.15789 22.57635-8.01527v270.38187c0 10.68703 16.03055 10.68703 16.03055 0v-270.38187c8.07985.73019 15.84488 3.48707 22.57635 8.01527l111.41229 80.95426 26.71758 19.10307c17.07209 14.0345 24.20556 36.85112 18.16795 58.11073l-64.96229 167.5589c-41.64696 9.0069-80.13078 11.0711-122.06074 26.74097-40.018-16.6761-85.42368-12.13347-121.16421-26.74097z" fill="#3636c9" transform="matrix(.10204113 0 0 .10204113 7.105601 -.579142)"/></svg>