<svg height="783.4043" viewBox="0 0 348.03893 783.40427" width="348.03894" xmlns="http://www.w3.org/2000/svg"><g transform="translate(1893.7249 1744.181)"><path d="m-1636.9209-960.77683c1.4838-4.6685 2.4247-9.5179 2.4247-14.5121 0-34.59767-38.1804-62.64487-85.2274-62.64487-47.0469 0-85.2273 28.0472-85.2273 62.64487 0 4.9942.8685 9.8436 2.3885 14.4759l-91.1625-.036.036-134.51817h33.6567v-20.9178h-33.6567l.036-627.8598 88.774-.036c0 34.67 38.1081 62.7173 85.1912 62.6811 47.0832-.036 85.1912-28.0111 85.2274-62.6449l88.774-.036-.072 783.36807zm-119.8974-155.43587h-51.6069l-.036 20.8816h51.6069zm103.2138 0h-51.6069v20.8454l51.6431.036zm103.2862 0-51.6431-.036.036 20.8816h51.6069z" fill="#efbd7c" stroke-width="51.1803"/><path d="m-1718.2647-1482.1724c-.179-.01-.3647.014-.5569.059-3.0824.735-4.4471 6.6152-4.4471 6.6152-.69-2.5725-5.3926-3.2775-6.5026 0-.7866 2.3293 1.3766 6.4814 3.3522 9.5886-46.7446 8.302-70.9081 69.7843-110.5648 109.8971-2.1301 2.805-.2483 6.9667 3.1193 6.9597l15.6287-.033c-.016-.067.019 0 .034 0h.4288.6411.3195.147.3228.6423.4276.067.4282.6418.3216.1487.3211.6434.4282.032.01.022.4287.6412.32.1714.3228.6417.4288l.02-.021.02.021h.4277.6423.3211.1741.3206.6434.4293l.019-.019.019.019h.4293c-.4637-.3556.077-.2335.4077-.2335l.2335.2324h.014s0 .01-.01.01l.401.3993.6411-.6439h.6423l-1.2823 1.2862-.6229-.6212c-.052.092-.097.1881-.148.2812l.5568.5552-1.2829 1.2868-.089-.089c-.125.3196-.255.6368-.3583.9662l.4487-.4498 1.2868 1.2823-1.2823 1.2868v-.6423l.6406-.6428-.6451-.6423-.6411.6434.645.6412v.6422l-.782-.7798c-.025.118-.055.2338-.078.3528l.6456.6434h-.6423l-.1192-.1187c-.1008.6816-.1537 2.0882-.1537 2.0882v91.9766s3.9602 5.3819 7.4999 7.4999l31.9063 19.0919c2.3585-29.9947 6.9652-108.4568 46.6087-109.4584 40.5676-1.0251 53.0535 72.4688 53.291 109.4584l28.2434-19.0919c3.4174-2.3101 7.4999-7.5004 7.4999-7.5004v-91.9761s-.089-1.6597-.2263-2.4626l-1.0605-1.0572.6673-.6688c-.033-.1089-.073-.2134-.1082-.3212l-.7737.7765-1.2868-1.2823 1.2823-1.2868.1415.1409c-.1456-.3163-.3254-.6113-.4915-.9157l-.9379-.9346h.4194c-.016-.025-.027-.053-.043-.078l29.4082-.062c3.4574-.01 4.8084-5.3101 2.9856-7.1321-40.9967-40.9816-69.8312-106.9035-103.4344-109.2604-3.4561-.2424 5.9005-8.1792 4.0444-9.5753-3.42-2.5725-5.8132 1.4698-5.8132 1.4698s2.0478-5.8805-1.0272-6.983c-3.075-1.1024-5.8126 4.41-5.8126 4.41s-1.2063-5.4906-3.8908-5.5714zm-87.9672 135.6119v-.329c-.0002 0 0 0 0 0zm35.1099-2.8437h.6423l-1.2823 1.2868-1.2868-1.2829h.6423l.6434.6412zm47.9814 0h.6423l-1.2828 1.2868-1.2863-1.2829h.6423l.6428.6412zm47.9809 0h.6423l-1.2823 1.2868-1.2868-1.2829h.6423l.6433.6412zm-96.9257 0h.6423l-.3206.3217zm47.9809 0h.6423l-.3206.3217zm47.9814 0h.6423l-.3206.3217zm-97.3533 0-1.2824 1.2867-1.2867-1.2823h.6422l.6434.6406.6417-.6434zm47.9814 0-1.2829 1.2867-1.2862-1.2823h.6417l.6434.6406.6417-.6434zm47.9809 0-1.2824 1.2867-1.2867-1.2823h.6423l.6433.6406.6418-.6434zm-96.9274 0-.3206.3217-.3217-.3201zm47.9814 0-.3206.3217-.3217-.3201zm47.9809 0-.3206.3217-.3217-.3201zm-98.6379 0h.6423l-1.2829 1.2867-1.2862-1.2823h.6422l.6429.6411zm47.9809 0h.6422l-1.2823 1.2867-1.2868-1.2823h.6423l.6434.6411zm47.9809 0h.6428l-1.2829 1.2867-1.2862-1.2823h.6423l.6428.6411zm-96.9258 0h.6423l-.3206.3217zm47.9815 0h.6422l-.3206.3217zm47.9808 0h.6423l-.3206.3217zm-97.3528 0-1.2828 1.2862-1.2862-1.2823h.6417l.6433.6411.6418-.6439zm47.9809 0-1.2823 1.2862-1.2868-1.2823h.6423l.6434.6411.6417-.6439zm47.9815 0-1.2829 1.2862-1.2868-1.2823h.6423l.6434.6411.6417-.6439zm47.9808 0-1.2823 1.2862-1.2868-1.2823h.6423l.6434.6411.6412-.6439zm-144.9082 0-.3206.3217-.3217-.3206zm47.9808 0-.3205.3217-.3217-.3206zm47.9809 0-.32.3217-.3217-.3206zm47.9815 0-.3206.3217-.3217-.3206zm-146.6194 0h.6423l-1.2823 1.2868-1.2868-1.2823h.6423l.6434.6417zm47.9809 0h.6428l-1.2829 1.2868-1.2867-1.2823h.6428l.6428.6417zm47.9814 0h.6423l-1.2823 1.2868-1.2868-1.2823h.6423l.6434.6417zm47.9809 0h.6423l-1.2823 1.2868-1.2868-1.2823h.6423l.6434.6417zm-144.9066 0h.6423l-.3206.3223zm47.9809 0h.6423l-.3206.3223zm47.9814 0h.6423l-.3206.3223zm47.9809 0h.6423l-.3206.3223zm-145.3342 0-1.2824 1.2868-1.2867-1.2829h.6423l.6433.6412.6412-.644zm47.9809 0-1.2824 1.2868-1.2867-1.2829h.6422l.6434.6412.6417-.644zm47.9814 0-1.2823 1.2868-1.2868-1.2829h.6423l.6434.6412.6411-.644zm47.9809 0-1.2824 1.2868-1.2867-1.2829h.6422l.6434.6412.6417-.644zm-144.9083 0-.3206.3217-.3217-.3201zm47.9809 0-.32.3217-.3217-.3201zm47.9814 0-.3206.3217-.3216-.3201zm47.9809 0-.32.3217-.3217-.3201zm-146.6182 0h.6422l-1.2823 1.2867-1.2868-1.2823h.6423l.6434.6412zm47.9814 0h.6423l-1.2829 1.2867-1.2862-1.2823h.6422l.6429.6412zm47.9809 0h.6423l-1.2824 1.2867-1.2867-1.2823h.6422l.6434.6412zm47.9809 0h.6428l-1.2829 1.2867-1.2868-1.2823h.6429l.6428.6412zm-144.9066 0h.6422l-.3206.3216zm47.9808 0h.6423l-.3206.3216zm47.9815 0h.6422l-.3205.3216zm47.9808 0h.6423l-.3206.3216zm-145.3342 0-1.2823 1.2867-1.2868-1.2829h.6423l.6434.6412.6417-.6439zm47.9815 0-1.2829 1.2867-1.2862-1.2829h.6417l.6434.6412.6417-.6439zm47.9808 0-1.2823 1.2867-1.2868-1.2829h.6423l.6434.6412.6412-.6439zm47.9809 0-1.2823 1.2867-1.2868-1.2829h.6423l.6434.6412.6417-.6439zm-144.9083 0-.3205.3217-.3217-.3206zm47.9809 0-.32.3217-.3217-.3206zm47.9815 0-.3206.3217-.3217-.3206zm47.9808 0-.32.3217-.3217-.3206zm-146.6187 0h.6422l-1.2829 1.2867-1.2862-1.2828h.6423l.6428.6411zm47.9808 0h.6423l-1.2823 1.2867-1.2868-1.2828h.6423l.6434.6411zm47.9809 0h.6429l-1.2829 1.2867-1.2868-1.2828h.6428l.6429.6411zm47.9815 0h.6422l-1.2823 1.2867-1.2868-1.2828h.6423l.6434.6411zm-144.9072 0h.6423l-.3206.3217zm47.9814 0h.6423l-.3206.3217zm47.9809 0h.6423l-.3206.3217zm47.9814 0h.6423l-.3206.3217zm-145.3342 0-1.2829 1.2868-1.2862-1.2824h.6417l.6434.6407.6417-.6434zm47.9809 0-1.2823 1.2868-1.2868-1.2824h.6423l.6434.6407.6411-.6434zm47.9809 0-1.2824 1.2868-1.2867-1.2824h.6422l.6434.6407.6417-.6434zm47.9814 0-1.2823 1.2868-1.2868-1.2824h.6423l.6433.6407.6412-.6434zm-144.9088 0-.32.3216-.3217-.32zm47.9814 0-.3206.3216-.3217-.32zm47.9809 0-.32.3216-.3217-.32zm47.9814 0-.3206.3216-.3217-.32zm-146.6193 0h.6423l-1.2824 1.2868-1.2867-1.2823h.6422l.6434.6412zm47.9809 0h.6428l-1.2829 1.2868-1.2867-1.2823h.6428l.6428.6412zm47.9814 0h.6423l-1.2823 1.2868-1.2868-1.2823h.6423l.6433.6412zm47.9809 0h.6422l-1.2823 1.2868-1.2868-1.2823h.6423l.6434.6412zm-144.9066 0h.6422l-.3205.3217zm47.9808 0h.6423l-.3205.3217zm47.9815 0h.6423l-.3206.3217zm47.9809 0h.6422l-.3206.3217zm-97.3534 0-1.2823 1.2863-1.2868-1.2824h.6423l.6434.6412.6417-.644zm47.9814 0-1.2823 1.2863-1.2867-1.2824h.6417l.6439.6412.6412-.644zm47.9809 0-1.2823 1.2863-1.2868-1.2824h.6423l.6434.6412.6417-.644zm-144.9082 0-.3206.3217-.3217-.3206zm47.9808 0-.32.3217-.3217-.3206zm47.9815 0-.3206.3217-.3217-.3206zm47.9808 0-.32.3217-.3217-.3206zm-98.6378 0h.6422l-1.2829 1.2862-1.2862-1.2824h.6423l.6434.6417zm47.9808 0h.6423l-1.2823 1.2862-1.2868-1.2824h.6423l.6434.6417zm47.9815 0h.6422l-1.2828 1.2862-1.2863-1.2824h.6423l.6428.6417zm-101.9674 0h.6428l-1.2829 1.2862-1.2868-1.2824h.6429l.6428.6412zm47.9814 0h.6423l-1.2824 1.2862-1.2867-1.2824h.6422l.6434.6412zm47.9809 0h.6422l-1.2823 1.2862-1.2868-1.2824h.6423l.6434.6412zm-90.9207 0h.6423l-.3206.3222zm47.9809 0h.6423l-.3206.3222zm47.9809 0h.6423l-.3206.3222zm-101.9669 0h.6423l-.3206.3217zm47.9815 0h.6423l-.3206.3217zm47.9809 0h.6422l-.3206.3217zm-97.3529 0-1.2828 1.2868-1.2868-1.2823h.6423l.6434.6406.6417-.6434zm6.0046 0-1.2829 1.2868-1.2862-1.2829h.6417l.644.6412.6411-.644zm41.9763 0-1.2823 1.2868-1.2867-1.2823h.6422l.6434.6406.6412-.6434zm6.0046 0-1.2824 1.2868-1.2867-1.2829h.6423l.6433.6412.6418-.644zm41.9763 0-1.2823 1.2868-1.2868-1.2823h.6423l.6434.6406.6417-.6434zm6.0051 0-1.2829 1.2868-1.2862-1.2829h.6417l.6434.6412.6417-.644zm-102.9325 0-.32.3217-.3217-.3201zm6.0051 0-.3206.3217-.3217-.3201zm41.9764 0-.3206.3217-.3217-.3201zm6.0045 0-.3206.3217-.3217-.3201zm41.9763 0-.32.3217-.3217-.3201zm6.0051 0-.3205.3217-.3217-.3201zm-103.7943.1453v.6422l-.6407.6434.6429.6412v.6423l-1.2868-1.2824zm47.9808 0v.6422l-.6406.6434.6429.6412v.6423l-1.2862-1.2824zm47.9809 0v.6422l-.6412.6434.6434.6412v.6423l-1.2868-1.2824zm-98.9607.01 1.2845 1.284-1.2845 1.2845-1.284-1.2845zm47.9815 0 1.2845 1.284-1.2845 1.2845-1.2846-1.2845zm47.9808 0 1.2846 1.284-1.2846 1.2845-1.284-1.2845zm-98.959 0 1.2867 1.2829-1.2823 1.2868v-.6423l.6406-.6434-.6434-.6411zm0 0v.6423l-.6412.6434.6434.6412v.6428l-1.2862-1.2829zm47.9808 0 1.2879 1.2829-1.2823 1.2868v-.6423l.6412-.6434-.6434-.6411zm0 0v.6423l-.6411.6434.6434.6412v.6428l-1.2868-1.2829zm47.9815 0 1.2879 1.2829-1.2829 1.2868v-.6423l.6411-.6434-.6433-.6411zm0 0v.6423l-.6412.6434.6434.6412v.6428l-1.2868-1.2829zm-98.9607.01 1.2845 1.2845-1.2845 1.284-1.2846-1.284zm47.9809 0 1.2845 1.2845-1.2845 1.284-1.284-1.284zm47.9814 0 1.2845 1.2845-1.2845 1.284-1.2846-1.284zm47.9809 0 1.2845 1.2845-1.2845 1.284-1.2846-1.284zm-146.9405.01 1.2868 1.2823-1.2824 1.2868-1.2867-1.2823zm0 0v.6417l-.6406.644.6428.6406v.6428-.6423l.6411-.6434-.6434-.6411zm47.9814 0 1.2879 1.2823-1.2823 1.2868v-.6423l.6406-.6434-.6434-.6411zm0 0v.6417l-.6411.644.6434.6406v.6428l-1.2868-1.2823zm47.9809 0 1.2879 1.2823-1.2823 1.2868v-.6423l.6411-.6434-.6439-.6411zm0 0v.6417l-.6411.644.6433.6406v.6428l-1.2868-1.2823zm47.9815 0 1.2878 1.2823-1.2829 1.2868v-.6423l.6412-.6434-.6434-.6411zm0 0v.6417l-.6412.644.6434.6406v.6428l-1.2867-1.2823zm-146.9422.01 1.2846 1.2846-1.2846 1.2845-1.2845-1.2845zm47.9814 0 1.284 1.2846-1.284 1.2845-1.2845-1.2845zm47.9809 0 1.2846 1.2846-1.2846 1.2845-1.2845-1.2845zm47.9815 0 1.284 1.2846-1.284 1.2845-1.2846-1.2845zm-146.9405.01 1.2856 1.2824-1.2817 1.2851-1.2857-1.2818 1.2818-1.2856zm47.9809 0 1.2856 1.2824-1.2817 1.2856-1.2863-1.2823 1.2813-1.2857zm47.9814 0 1.2879 1.2829-1.2829 1.2862-1.2868-1.2817 1.2818-1.2863zm.01 2.5691v-.6417l.6412-.6439-.6434-.6406v-.5358.5352l-.6412.6439.6434.6406zm47.9759-2.5691 1.2867 1.2824-1.2823 1.2862v-.6418l.6406-.6439-.6434-.6406v-.4592.4587l-.6412.6439.6434.6406v.6428l-1.2868-1.2823 1.2818-1.2857zm-146.941.01 1.2845 1.2845-1.2845 1.2846-1.284-1.2846zm47.9814 0 1.2846 1.2845-1.2846 1.2846-1.2845-1.2846zm47.9809 0 1.2845 1.2845-1.2845 1.2846-1.2846-1.2846zm47.9814 0 1.2846 1.2845-1.2846 1.2846-1.2845-1.2846zm-146.9404.01 1.2867 1.2823-1.2823 1.2868v-.6422l.6406-.6434-.6434-.6406zm0 0v.6423l-.6412.6434.6434.6412v.6422l-1.2862-1.2823zm47.9808 0 1.2868 1.2823-1.2823 1.2868-1.2868-1.2823zm0 0v.6423l-.6406.6434.6428.6412v.6422-.6422l.6412-.6434-.644-.6406zm47.9815 0 1.2878 1.2823-1.2829 1.2868v-.6422l.6412-.6434-.6434-.6406zm0 0v.6423l-.6412.6434.6434.6412v.6422l-1.2867-1.2823zm47.9808 0 1.2879 1.2823-1.2823 1.2868v-.6422l.6412-.6434-.644-.6406zm0 0v.6423l-.6412.6434.6434.6412v.6422l-1.2868-1.2823zm-146.9415.01 1.2845 1.284-1.2845 1.2845-1.2846-1.2845zm47.9808 0 1.2846 1.284-1.2846 1.2845-1.2839-1.2845zm47.9815 0 1.2845 1.284-1.2845 1.2845-1.2846-1.2845zm47.9808 0 1.2846 1.284-1.2846 1.2845-1.2845-1.2845zm-146.9404 0 1.2868 1.2829-1.2824 1.2868-1.2867-1.2829zm0 0v.6423l-.6412.6434.6434.6412v.6428-.6423l.6412-.6434-.6439-.6411zm47.9814 0 1.2868 1.2829-1.2829 1.2868-1.2868-1.2829zm0 0v.6423l-.6412.6434.6434.6412v.6428-.6423l.6411-.6434-.6434-.6411zm47.9809 0 1.2879 1.2829-1.2824 1.2868v-.6423l.6412-.6434-.6439-.6411zm0 0v.6423l-.6406.6434.6434.6412v.6428l-1.2868-1.2829zm47.9814 0 1.2879 1.2829-1.2829 1.2868v-.6423l.6412-.6434-.6434-.6411zm0 0v.6423l-.6411.6434.6433.6412v.6428l-1.2868-1.2829zm-146.9421.01 1.2846 1.2846-1.2846 1.284-1.2846-1.284zm47.9814 0 1.284 1.2846-1.284 1.284-1.2845-1.284zm47.9809 0 1.2845 1.2846-1.2845 1.284-1.2845-1.284zm47.9814 0 1.284 1.2846-1.284 1.284-1.2845-1.284zm-104.9641.01v.6422l-.6412.6434.6434.6412v.6423l-1.2868-1.2824zm6.0045 0 1.2868 1.2823-1.2823 1.2868-1.2868-1.2824zm0 0v.6422l-.6411.6434.6433.6406v.6429-.6423l.6406-.6434-.6434-.6412zm41.9764 0v.6422l-.6412.6434.6434.6412v.6423l-1.2867-1.2824zm6.0051 0 1.2879 1.2823-1.2829 1.2868v-.6423l.6412-.6434-.6435-.6412zm0 0v.6422l-.6412.6434.6434.6406v.6429l-1.2867-1.2824zm41.9763 0v.6422l-.6412.6434.6434.6412v.6423l-1.2868-1.2824zm6.0046 0 1.2878 1.2823-1.2823 1.2868v-.6423l.6406-.6434-.6434-.6412zm0 0v.6422l-.6407.6434.6429.6406v.6429l-1.2862-1.2824zm-104.9653.01 1.2845 1.2845-1.2845 1.2846-1.2845-1.2846zm6.0045 0 1.2846 1.2845-1.2846 1.2846-1.2845-1.2846zm41.9764 0 1.2845 1.2845-1.2845 1.2846-1.2846-1.2846zm6.0051 0 1.284 1.2845-1.284 1.2846-1.2846-1.2846zm41.9763 0 1.284 1.2845-1.284 1.2846-1.2845-1.2846zm6.0046 0 1.2845 1.2845-1.2845 1.2846-1.2846-1.2846zm-104.9642.01 1.2868 1.2829-1.2823 1.2862v-.6418l.6411-.6433-.6439-.6412zm6.0051 0 1.2862 1.2829-1.2823 1.2862v-.6418l.6412-.6439-.6434-.6406zm41.9764 0 1.2878 1.2829-1.2828 1.2862v-.6418l.6411-.6433-.6434-.6412zm6.0045 0 1.2879 1.2829-1.2823 1.2862v-.6418l.6406-.6439-.6434-.6406zm41.9763 0 1.2879 1.2829-1.2823 1.2862v-.6418l.6406-.6433-.6434-.6412zm6.0046 0 1.2879 1.2829-1.2824 1.2862v-.6418l.6412-.6439-.6434-.6406zm-119.9611.2801v.3211l-.6406.644.6428.6405v.3212-.3206l.6412-.6439-.6434-.6407zm47.9809.1076v.2135l-.6412.644.6434.6405v.4288-.4282l.6406-.6439-.6434-.6407zm-32.9945.1885-.6417.6418.6417.6422.6423-.6422zm47.9815 0-.6423.6418.6423.6422.6422-.6422zm47.9808 0-.6417.6418.6417.6422.6423-.6422zm-101.9574.01-.6423.6423.6423.6417.6423-.6417zm47.9809 0-.6417.6423.6417.6417.6422-.6417zm47.9814 0-.6423.6423.6423.6417.6423-.6417zm47.9809 0-.6417.6423.6417.6417.6423-.6417zm-149.9389.01-.6417.6423.6417.6423.6423-.6423zm47.9815 0-.6423.6423.6423.6423.6417-.6423zm47.9809 0-.6423.6423.6423.6423.6422-.6423zm47.9814 0-.6423.6423.6423.6423.6417-.6423zm-149.9383.01-.6417.6423.6417.6423.6422-.6423zm47.9814 0-.6423.6423.6423.6423.6423-.6423zm47.9809 0-.6417.6423.6417.6423.6423-.6423zm47.9814 0-.6423.6423.6423.6423.6417-.6423zm-149.9388.011-.6423.6418.6423.6422.6422-.6422zm47.9808 0-.6417.6418.6417.6422.6423-.6422zm47.9815 0-.6423.6418.6423.6422.6417-.6422zm47.9808 0-.6417.6418.6417.6422.6423-.6422zm-149.9388.01-.6417.6422.6417.6418.6423-.6418zm47.9814 0-.6423.6422.6423.6418.6417-.6418zm47.9809 0-.6423.6422.6423.6418.6423-.6418zm47.9814 0-.6422.6422.6422.6418.6418-.6418zm-101.958.01-.6422.6423.6422.6423.6423-.6423zm47.9815 0-.6423.6423.6423.6423.6417-.6423zm47.9809 0-.6423.6423.6423.6423.6422-.6423zm-101.9669 0-.6423.6417.6423.6423.6417-.6423zm47.9809 0-.6417.6417.6417.6423.6423-.6423zm47.9814 0-.6422.6417.6422.6423.6417-.6423zm-98.9679.254v.6423l-.3217-.3206zm47.9809 0v.6423l-.3217-.3206zm47.9809 0v.6423l-.3217-.3206zm-98.9613.01.3212.3212-.3212.3211-.3211-.3211zm47.9815 0 .3211.3212-.3211.3211-.3212-.3211zm47.9808 0 .3211.3212-.3211.3211-.3211-.3211zm-98.9585.01v.6422l-.3217-.3206zm47.9809 0v.6422l-.3217-.3206zm47.9815 0v.6422l-.3217-.3206zm-95.9602 0 .3218.3205-.3218.3217zm47.9809 0 .3217.3205-.3217.3217zm47.9815 0 .3217.3205-.3217.3217zm-98.9635.01.3211.3211-.3211.3211-.3211-.3211zm47.9809 0 .3211.3211-.3211.3211-.3212-.3211zm47.9814 0 .3211.3211-.3211.3211-.3211-.3211zm47.9809 0 .3211.3211-.3211.3211-.3212-.3211zm-146.9399.01v.6422l-.3217-.3205zm47.9814 0v.6422l-.3217-.3205zm47.9809 0v.6422l-.3217-.3205zm47.9814 0v.6422l-.3222-.3205zm-143.9415 0 .3217.32-.3217.3217zm47.9814 0 .3217.32-.3217.3217zm47.9809 0 .3217.32-.3217.3217zm47.9814 0 .3217.32-.3217.3217zm-146.9449 0 .3212.3212-.3212.3211-.3211-.3211zm47.9815 0 .3211.3212-.3211.3211-.3212-.3211zm47.9809 0 .3211.3212-.3211.3211-.3212-.3211zm47.9808 0 .3212.3212-.3212.3211-.3206-.3211zm-146.9388.01v.6423l-.3217-.3206zm0 0 .3217.3201-.3217.3222zm47.9797 0v.6423-.6423l.3217.3201-.3217.3222-.3217-.3206zm47.9809 0v.6423l-.3217-.3206zm0 0 .3217.3201-.3217.3222zm47.9798 0v.6423-.6423l.3217.3201-.3217.3222-.3217-.3206zm-146.9426.01.3211.3212-.3211.3211-.3212-.3211zm47.9814 0 .3211.3212-.3211.3211-.3212-.3211zm47.9808 0 .3212.3212-.3212.3211-.3211-.3211zm47.9815 0 .3211.3212-.3211.3211-.3212-.3211zm-146.9399.01v.6423l-.3217-.3206zm47.9808 0v.6423l-.3217-.3206zm47.9815 0v.6423l-.3217-.3206zm47.9809 0v.6423l-.3217-.3206zm-143.941 0 .3217.3201-.3217.3217zm47.9809 0 .3216.3201-.3216.3217zm47.9814 0 .3217.3201-.3217.3217zm47.9809 0 .3217.3201-.3217.3217zm-146.9444 0 .3212.3211-.3212.3212-.3211-.3212zm47.9809 0 .3211.3211-.3211.3212-.3211-.3212zm47.9814 0 .3212.3211-.3212.3212-.3211-.3212zm47.9809 0 .3211.3211-.3211.3212-.3211-.3212zm-146.9399.01v.6423l-.3217-.3206zm47.9814 0v.6423l-.3217-.3206zm47.9809 0v.6423l-.3217-.3206zm47.9814 0v.6423l-.3222-.3206zm-143.9415 0 .3217.3206-.3217.3217zm47.9814 0 .3217.3206-.3217.3217zm47.9809 0 .3217.3206-.3217.3217zm47.9814 0 .3218.3206-.3218.3217zm-146.9448.01.3211.3212-.3211.3211-.3212-.3211zm47.9814 0 .3206.3212-.3206.3211-.3211-.3211zm47.9809 0 .3211.3212-.3211.3211-.3212-.3211zm47.9808 0 .3212.3212-.3212.3211-.3206-.3211zm-104.963.01v.6423l-.3217-.3206zm6.0046 0v.6423l-.3217-.3206zm41.9763 0v.6423l-.3217-.3206zm6.0045 0v.6423l-.3216-.3206zm41.9769 0v.6423l-.3222-.3206zm6.0046 0v.6423l-.3217-.3206zm-95.9601 0 .3217.3201-.3217.3217zm47.9814 0 .3217.3201-.3217.3217zm47.9809 0 .3217.3201-.3217.3217zm-104.968 0 .3211.3211-.3211.3211-.3212-.3211zm6.0045 0 .3211.3211-.3211.3211-.3211-.3211zm41.9764 0 .3211.3211-.3211.3211-.3212-.3211zm6.0045 0 .3211.3211-.3211.3211-.3211-.3211zm41.9763 0 .3212.3211-.3212.3211-.3206-.3211zm6.0051 0 .3212.3211-.3212.3211-.3211-.3211zm-104.9613.01.3217.3206-.3217.3217zm6.0051 0 .3217.3206-.3217.3217zm41.9763 0 .3217.3206-.3217.3217zm6.0045 0 .3217.3206-.3217.3217zm41.9764 0 .3217.3206-.3217.3217zm6.0045 0 .3217.3206-.3217.3217zm-137.4417.1731c-.099.1954-.215.3803-.3056.5802l.4421-.4438zm33.9662.2923 1.2868 1.2823-1.2823 1.2868-1.2868-1.2829zm47.9815 0 1.2868 1.2823-1.2829 1.2868-1.2868-1.2829zm47.9809 0 1.2867 1.2823-1.2823 1.2868-1.2868-1.2829zm-98.9591.01 1.2868 1.2829-1.2829 1.2868-1.2862-1.2829zm47.9809 0 1.2868 1.2829-1.2824 1.2868-1.2867-1.2829zm47.9814 0 1.2868 1.2829-1.2829 1.2868-1.2868-1.2829zm-98.9607.01 1.2868 1.2823-1.2829 1.2868-1.2862-1.2823zm47.9809 0 1.2868 1.2823-1.2824 1.2868-1.2867-1.2823zm47.9814 0 1.2862 1.2823-1.2823 1.2868-1.2868-1.2823zm-98.9595.01 1.2867 1.2823-1.2823 1.2868-1.2868-1.2823zm47.9814 0 1.2867 1.2823-1.2828 1.2868-1.2868-1.2823zm47.9808 0 1.2868 1.2823-1.2823 1.2868-1.2868-1.2823zm47.9815 0 1.2862 1.2823-1.2823 1.2868-1.2868-1.2823zm-146.9421 0 1.2867 1.2828-1.2823 1.2868-1.2868-1.2829zm47.9814 0 1.2862 1.2828-1.2823 1.2868-1.2868-1.2829zm47.9809 0 1.2867 1.2828-1.2829 1.2868-1.2862-1.2829zm47.9814 0 1.2862 1.2828-1.2823 1.2868-1.2868-1.2829zm-146.9404.01 1.2862 1.2828-1.2824 1.2863-1.2867-1.2824zm47.9808 0 1.2868 1.2828-1.2824 1.2863-1.2867-1.2824zm47.9814 0 1.2863 1.2828-1.2824 1.2863-1.2867-1.2824zm47.9809 0 1.2868 1.2828-1.2829 1.2863-1.2862-1.2824zm-146.941.01 1.2868 1.2829-1.2823 1.2862-1.2868-1.2824zm47.9814 0 1.2868 1.2829-1.2829 1.2862-1.2868-1.2824zm47.9809 0 1.2868 1.2829-1.2824 1.2862-1.2867-1.2824zm47.9814 0 1.2863 1.2829-1.2824 1.2862-1.2867-1.2824zm-146.9404.01 1.2867 1.2823-1.2828 1.2868-1.2862-1.2824zm47.9808 0 1.2868 1.2823-1.2823 1.2868-1.2868-1.2824zm47.9815 0 1.2862 1.2823-1.2823 1.2868-1.2868-1.2824zm47.9809 0 1.2867 1.2823-1.2823 1.2868-1.2868-1.2824zm-146.9416.01 1.2867 1.2823-1.2828 1.2868-1.2868-1.2829zm47.9809 0 1.2867 1.2823-1.2823 1.2868-1.2868-1.2829zm47.9814 0 1.2862 1.2823-1.2823 1.2868-1.2868-1.2829zm47.9809 0 1.2867 1.2823-1.2823 1.2868-1.2867-1.2829zm-146.9405.01 1.2868 1.2823-1.2824 1.2868-1.2867-1.2829zm47.9814 0 1.2863 1.2823-1.2824 1.2868-1.2867-1.2829zm47.9809 0 1.2868 1.2823-1.2823 1.2868-1.2868-1.2829zm47.9814 0 1.2862 1.2823-1.2823 1.2868-1.2867-1.2829zm-146.9421 0 1.2868 1.2823-1.2823 1.2868-1.2868-1.2824zm47.9815 0 1.2862 1.2823-1.2824 1.2868-1.2867-1.2824zm47.9808 0 1.2868 1.2823-1.2829 1.2868-1.2862-1.2824zm47.9809 0 1.2868 1.2823-1.2824 1.2868-1.2867-1.2824zm-146.9399.01 1.2862 1.2823-1.2823 1.2868-1.2868-1.2824zm47.9809 0 1.2868 1.2823-1.2824 1.2868-1.2868-1.2824zm47.9814 0 1.2862 1.2823-1.2823 1.2868-1.2868-1.2824zm47.9809 0 1.2867 1.2823-1.2828 1.2868-1.2863-1.2824zm-98.9607 0 1.2868 1.2829-1.2829 1.2868-1.2862-1.2829zm47.9809 0 1.2867 1.2829-1.2823 1.2868-1.2868-1.2829zm47.9814 0 1.2868 1.2829-1.2829 1.2868-1.2863-1.2829zm-101.9669 0 1.2863 1.2823-1.2824 1.2868-1.2867-1.2829zm47.9809 0 1.2868 1.2823-1.2823 1.2868-1.2868-1.2829zm47.9814 0 1.2862 1.2823-1.2823 1.2868-1.2867-1.2829zm-92.955.01 1.2868 1.2829-1.2823 1.2862-1.2868-1.2823zm47.9814 0 1.2868 1.2829-1.2829 1.2862-1.2862-1.2823zm47.9809 0 1.2868 1.2829-1.2824 1.2862-1.2867-1.2823zm-101.9668 0 1.2867 1.2824-1.2823 1.2867-1.2868-1.2829zm47.9814 0 1.2862 1.2824-1.2823 1.2867-1.2868-1.2829zm47.9809 0 1.2867 1.2824-1.2829 1.2867-1.2862-1.2829zm-98.9696.5752-.6406.6439.6428.6406.6412-.6433zm47.9814 0-.6411.6439.6434.6406.6411-.6433zm47.9809 0-.6406.6439.6428.6406.6412-.6433zm-98.959.01-.6406.6434.6428.6412.6412-.6434zm47.9814 0-.6412.6434.6434.6412.6412-.6434zm47.9809 0-.6406.6434.6428.6412.6412-.6434zm-98.9607 0-.6412.6445.6434.6401.6412-.6434zm47.9809 0-.6407.6445.6429.6401.6411-.6434zm47.9814 0-.6412.6445.6434.6401.6412-.6434zm47.9809 0-.6412.6445.6434.6401.5962-.5985c-.018-.049-.038-.097-.056-.1453zm-146.9399.01-.6412.6439.6434.6406.6411-.6428zm47.9808 0-.6406.6439.6429.6406.6411-.6428zm47.9815 0-.6412.6439.6434.6406.6412-.6428zm47.9808 0-.6411.6439.6434.6406.6411-.6428zm-146.9421 0-.6412.644.6434.64.6412-.6428zm47.9814 0-.6411.644.6434.64.6411-.6428zm47.9809 0-.6411.644.6433.64.6412-.6428zm47.9815 0-.6412.644.6428.64.6417-.6428zm-146.9405.01-.6406.6434.6428.6411.6412-.6433zm47.9814 0-.6411.6434.6433.6411.6412-.6433zm47.9809 0-.6412.6434.6434.6411.6412-.6433zm47.9814 0-.6412.6434.6429.6411.6417-.6433zm-146.9415 0-.6407.6444.6429.6401.6411-.6428zm47.9814 0-.6412.6444.6434.6401.6412-.6428zm47.9809 0-.6406.6444.6428.6401.6411-.6428zm47.9814 0-.6412.6444.6434.6401.6412-.6428zm-146.9405.01-.6406.6434.6429.6411.6411-.6433zm47.9815 0-.6412.6434.6434.6411.6412-.6433zm47.9808 0-.6406.6434.6429.6411.6411-.6433zm47.9815 0-.6412.6434.6434.6411.6412-.6433zm-146.9421 0-.6412.6439.6434.6406.6411-.6434zm47.9808 0-.6406.6439.6428.6406.6412-.6434zm47.9815 0-.6412.6439.6434.6406.6411-.6434zm47.9808 0-.6411.6439.6433.6406.6412-.6434zm-146.9399.01-.6411.6434.6433.6412.6412-.6434zm47.9809 0-.6406.6434.6428.6412.6412-.6434zm47.9814 0-.6412.6434.6435.6412.6411-.6434zm47.9809 0-.6412.6434.6434.6412.6412-.6434zm-146.9421 0-.6412.6445.6434.64.6412-.6433zm47.9814 0-.6412.6445.6434.64.6412-.6433zm47.9809 0-.6412.6445.6434.64.6412-.6433zm47.9808 0-.6406.6445.6429.64.6417-.6433zm-146.9399.01-.6411.644.6434.6406.6412-.6428zm47.9815 0-.6412.644.6434.6406.6412-.6428zm47.9809 0-.6412.644.6434.6406.6411-.6428zm47.9814 0-.6412.644.6428.6406.6418-.6428zm-104.9658 0-.6412.6439.6434.6406.6412-.6434zm6.0045 0-.6411.6439.6434.6401.6411-.6429zm41.9764 0-.6412.6439.6434.6406.6412-.6434zm6.0045 0-.6406.6439.6428.6401.6412-.6429zm41.9769 0-.6412.6439.6429.6406.6417-.6434zm6.0045 0-.6411.6439.6434.6401.6411-.6429zm-104.9635.01-.6412.6434.6434.6412.6411-.6434zm6.0045 0-.6412.6434.6434.6412.6412-.6434zm41.9764 0-.6412.6434.6434.6412.6411-.6434zm6.0045 0-.6406.6434.6428.6412.6412-.6434zm41.9769 0-.6412.6434.6428.6412.6418-.6434zm6.0045 0-.6411.6434.6433.6412.6412-.6434zm-104.9741.2541.3217.3205-.3211.3212-.3212-.3206zm47.9809 0 .3217.3205-.3206.3212-.3217-.3206zm47.9814 0 .3212.3205-.3206.3212-.3212-.3206zm-98.9596.01.3217.3205-.3206.3217-.3216-.3205zm47.9815 0 .3217.3205-.3212.3217-.3211-.3205zm47.9808 0 .3217.3205-.3206.3217-.3217-.3205zm-98.9607.01.3217.3206-.3205.3216-.3217-.3205zm47.9815 0 .3211.3206-.3206.3216-.3211-.3205zm47.9808 0 .3217.3206-.3206.3216-.3216-.3205zm47.9815 0 .3211.3206-.3206.3216-.3211-.3205zm-146.9405.01.3217.3206-.3211.3217-.3212-.3206zm47.9809 0 .3217.3206-.3206.3217-.3217-.3206zm47.9814 0 .3212.3206-.3206.3217-.3212-.3206zm47.9809 0 .3217.3206-.3206.3217-.3217-.3206zm-146.9416.01.3212.3211-.3206.3212-.3211-.3206zm47.9809 0 .3217.3211-.3206.3212-.3217-.3206zm47.9814 0 .3212.3211-.3206.3212-.3217-.3206zm47.9809 0 .3217.3211-.3206.3212-.3217-.3206zm-146.9404.01.3216.3206-.3205.3216-.3217-.3205zm47.9814 0 .3211.3206-.3206.3216-.3211-.3205zm47.9808 0 .3217.3206-.3205.3216-.3217-.3205zm47.9809 0 .3217.3206-.3206.3216-.3217-.3205zm-146.9404.01.3217.3206-.3212.3217-.3211-.3206zm47.9808 0 .3217.3206-.3206.3217-.3216-.3206zm47.9815 0 .3211.3206-.3206.3217-.3211-.3206zm47.9809 0 .3216.3206-.3205.3217-.3217-.3206zm-146.9405.01.3217.3205-.3206.3212-.3217-.3206zm47.9814 0 .3211.3205-.3205.3212-.3212-.3206zm47.9809 0 .3217.3205-.3206.3212-.3217-.3206zm47.9814 0 .3212.3205-.3206.3212-.3212-.3206zm-146.9421.01.3217.3206-.3206.3216-.3217-.3211zm47.9814 0 .3212.3206-.3206.3216-.3211-.3211zm47.9809 0 .3217.3206-.3206.3216-.3217-.3211zm47.9814 0 .3212.3206-.3206.3216-.3212-.3211zm-146.9404.01.3211.3206-.3206.3217-.3211-.3206zm47.9808 0 .3217.3206-.3205.3217-.3217-.3206zm47.9815 0 .3211.3206-.3206.3217-.3211-.3206zm47.9808 0 .3218.3206-.3206.3217-.3217-.3206zm-146.9415.01.3211.3206-.3206.3217-.3211-.3206zm47.9809 0 .3216.3206-.3205.3217-.3217-.3206zm47.9808 0 .3217.3206-.3205.3217-.3217-.3206zm47.9815 0 .3217.3206-.3206.3217-.3217-.3206zm-146.9405.01.3217.3206-.3206.3217-.3217-.3206zm47.9814 0 .3212.3206-.3206.3217-.3211-.3206zm47.9809 0 .3217.3206-.3206.3217-.3217-.3206zm47.9809 0 .3217.3206-.3206.3217-.3217-.3206zm-104.9652.01.3216.3206-.3205.3217-.3217-.3211zm6.0045 0 .3217.3206-.3206.3211-.3217-.3205zm41.9769 0 .3211.3206-.3205.3217-.3218-.3211zm6.0045 0 .3217.3206-.3211.3211-.3212-.3205zm41.9763 0 .3218.3206-.3206.3217-.3217-.3211zm6.0046 0 .3217.3206-.3206.3211-.3217-.3205zm-104.9636.01.3212.3206-.3206.3217-.3211-.3206zm6.0046 0 .3217.3206-.3206.3217-.3217-.3206zm41.9763 0 .3217.3206-.3206.3217-.3217-.3206zm6.0045 0 .3217.3206-.3205.3217-.3217-.3206zm41.9769 0 .3212.3206-.3206.3217-.3217-.3206zm6.0046 0 .3217.3206-.3212.3217-.3211-.3206zm-103.4744.4654v.6422l-.6411.6434.645.6412v.6423l-1.2862-1.2824zm47.9809 0v.6422l-.6406.6434.645.6412v.6423l-1.2867-1.2824zm47.9814 0v.6422l-.6411.6434.645.6412v.6423l-1.2868-1.2824zm-98.9596.01 1.2863 1.2823-1.2824 1.2868-1.2868-1.2824zm47.9809 0 1.2862 1.2823-1.2823 1.2868-1.2868-1.2824zm47.9814 0 1.2862 1.2823-1.2823 1.2868-1.2868-1.2824zm-98.9607.01 1.2868 1.2823-1.2823 1.2868-1.2868-1.2829zm47.9815 0 1.2862 1.2823-1.2823 1.2868-1.2868-1.2829zm47.9808 0 1.2868 1.2823-1.2823 1.2868-1.2868-1.2829zm-98.9595.01 1.2867 1.2829-1.2828 1.2867-1.2868-1.2829zm47.9814 0 1.2862 1.2829-1.2823 1.2867-1.2868-1.2829zm47.9809 0 1.2862 1.2829-1.2824 1.2867-1.2867-1.2829zm47.9814 0 1.2862 1.2829-1.2829 1.2867-1.2862-1.2829zm-146.9416.01 1.2868 1.2823-1.2829 1.2868-1.2867-1.2823zm47.9809 0 1.2868 1.2823-1.2824 1.2868-1.2867-1.2823zm47.9814 0 1.2862 1.2823-1.2823 1.2868-1.2868-1.2823zm47.9809 0 1.2868 1.2823-1.2823 1.2868v-.6423l.6405-.6428-.645-.6423-.6412.6434.6451.6412v.6422l-1.2862-1.2823zm-146.9404.01 1.2862 1.2823-1.2829 1.2868-1.2862-1.2824zm47.9808 0 1.2862 1.2823-1.2823 1.2868-1.2868-1.2824zm47.9809 0 1.2868 1.2823-1.2829 1.2868-1.2862-1.2824zm47.9814 0 1.2863 1.2823-1.2824 1.2868-1.2867-1.2824zm-146.9415 0 1.2856 1.2823-1.2817 1.2857-1.2863-1.2823 1.2813-1.2857zm47.9814 0 1.2862 1.2829-1.2812 1.2851-1.2857-1.2818 1.2818-1.2862zm47.9809 0 1.2856 1.2823-1.2817 1.2852-1.2857-1.2818 1.2818-1.2856zm47.9809 0 1.2856 1.2823-1.2812 1.2852-1.2857-1.2818 1.2813-1.2856zm-146.9394.01 1.2862 1.2823-1.2823 1.2868-1.2868-1.2829zm47.9809 0 1.2862 1.2823-1.2824 1.2868-1.2867-1.2829zm47.9814 0 1.2862 1.2823-1.2829 1.2868-1.2862-1.2829zm47.9809 0 1.2862 1.2823-1.2823 1.2868-1.2868-1.2829zm-146.9416 0 1.2868 1.2823-1.2824 1.2868-1.2867-1.2823zm47.9814 0 1.2862 1.2823-1.2823 1.2868-1.2868-1.2823zm47.9809 0 1.2868 1.2823-1.2823 1.2868-1.2868-1.2823zm47.9814 0 1.2862 1.2823-1.2823 1.2868-1.2867-1.2823zm-146.941.01 1.2862 1.2823-1.2823 1.2868-1.2868-1.2824zm47.9815 0 1.2862 1.2823-1.2824 1.2868-1.2867-1.2824zm47.9808 0 1.2863 1.2823-1.2824 1.2868-1.2867-1.2824zm47.9815 0 1.2862 1.2823-1.2829 1.2868-1.2862-1.2824zm-146.9416.01 1.2862 1.2823-1.2823 1.2868-1.2868-1.2829zm47.9809 0 1.2867 1.2823-1.2823 1.2868-1.2868-1.2829zm47.9814 0 1.2862 1.2823-1.2823 1.2868-1.2868-1.2829zm47.9809 0 1.2867 1.2823-1.2829 1.2868-1.2862-1.2829zm-146.9405.01 1.2862 1.2823-1.2829 1.2868-1.2862-1.2829zm47.9809 0 1.2862 1.2823-1.2823 1.2868-1.2868-1.2829zm47.9809 0 1.2867 1.2823-1.2828 1.2868-1.2863-1.2829zm47.9814 0 1.2862 1.2823-1.2823 1.2868-1.2868-1.2829zm-104.9652 0v.6423l-.6412.6434.6456.6411v.6423l-1.2868-1.2823zm6.0051 0 1.2862 1.2824-1.2824 1.2867-1.2867-1.2823zm41.9763 0v.6423l-.6412.6434.6451.6411v.6423l-1.2868-1.2823zm6.0045 0 1.2868 1.2824-1.2829 1.2867-1.2862-1.2823zm41.9763 0v.6423l-.6411.6434.645.6411v.6423l-1.2862-1.2823zm6.0046 0 1.2868 1.2824-1.2824 1.2867-1.2867-1.2823zm-104.9641.01 1.2862 1.2823-1.2823 1.2868-1.2868-1.2823zm6.0045 0 1.2868 1.2823-1.2829 1.2868-1.2862-1.2823zm41.9769 0 1.2862 1.2823-1.2829 1.2868-1.2862-1.2823zm6.0046 0 1.2861 1.2823-1.2823 1.2868-1.2867-1.2823zm41.9763 0 1.2862 1.2823-1.2823 1.2868-1.2868-1.2823zm6.0045 0 1.2868 1.2823-1.2829 1.2868-1.2868-1.2823zm-104.9646 0 1.2862 1.2829-1.2824 1.2867v-.6423l.6412-.6433-.645-.6418zm6.0045 0 1.2868 1.2829-1.2829 1.2862v-.6418l.6411-.6433-.645-.6418zm41.9763 0 1.2868 1.2829-1.2829 1.2867v-.6423l.6412-.6433-.6451-.6418zm6.0046 0 1.2867 1.2829-1.2823 1.2862v-.6418l.6406-.6433-.645-.6418zm41.9763 0 1.2868 1.2829-1.2824 1.2867v-.6423l.6412-.6433-.6456-.6418zm6.0051 0 1.2862 1.2829-1.2823 1.2862v-.6418l.6411-.6433-.645-.6418zm-104.973.5762-.6412.6429.6434.6411.6406-.6434zm47.9809 0-.6407.6429.6429.6411.6411-.6434zm47.9814 0-.6412.6429.6434.6411.6406-.6434zm-98.9613 0-.6406.6428.6451.6417.6406-.6434zm47.9815 0-.6412.6428.6451.6417.6411-.6434zm47.9808 0-.6406.6428.6451.6417.6406-.6434zm-98.959.01-.6406.6433.6428.6407.6412-.6429zm47.9814 0-.6411.6433.6434.6407.6406-.6429zm47.9809 0-.6411.6433.6433.6407.6412-.6429zm47.9815 0-.6412.6433.6434.6407.6406-.6429zm-146.9422 0-.6411.6434.645.6411.6412-.6428zm47.9809 0-.6412.6434.6456.6411.6407-.6428zm47.9814 0-.6411.6434.645.6411.6412-.6428zm-98.959.01-.6412.6434.6434.6411.6406-.6433zm47.9809 0-.6412.6434.6434.6411.6412-.6433zm47.9809 0-.6406.6434.6428.6411.6411-.6433zm47.9814 0-.6412.6434.6434.6411.6412-.6433zm-146.941.01-.6412.6434.6445.6411.6406-.6434zm47.9808 0-.6406.6434.6445.6406.6407-.6429zm47.9815 0-.6412.6434.6445.6406.6406-.6429zm47.9809 0-.6412.6434.645.6406.6406-.6429zm-146.9399.01-.6412.6434.6434.6411.6406-.6433zm47.9808 0-.6411.6434.6433.6411.6412-.6433zm47.9815 0-.6412.6434.6434.6411.6406-.6433zm47.9808 0-.6411.6434.6433.6411.6412-.6433zm-146.9421.01-.6406.6434.645.6411.6407-.6428zm47.9814 0-.6411.6434.645.6411.6412-.6428zm47.9809 0-.6412.6434.6457.6411.6405-.6428zm47.9814 0-.6411.6434.645.6411.6412-.6428zm-146.9404.01-.6412.6428.6434.6412.6412-.6434zm47.9814 0-.6411.6428.6433.6412.6406-.6434zm47.9809 0-.6412.6428.6434.6412.6412-.6434zm47.9809 0-.6407.6428.6429.6412.6411-.6434zm-146.9416 0-.6412.6429.6451.6417.6412-.6434zm47.9809 0-.6412.6429.6456.6417.6406-.6434zm47.9814 0-.6412.6429.6451.6417.6411-.6434zm47.9809 0-.6412.6429.645.6417.6412-.6434zm-146.9399.01-.6412.6434.6434.6406.6406-.6428zm47.9808 0-.6411.6434.6434.6406.6411-.6428zm47.9809 0-.6406.6434.6428.6406.6412-.6428zm47.9814 0-.6411.6434.6434.6406.6411-.6428zm-98.9606 0-.6412.6434.645.6411.6412-.6428zm47.9808 0-.6411.6434.645.6411.6412-.6428zm47.9809 0-.6406.6434.645.6411.6412-.6428zm-98.959.01-.6406.6433.6428.6412.6412-.6434zm47.9814 0-.6412.6433.6434.6412.6406-.6434zm47.9809 0-.6406.6433.6428.6412.6412-.6434zm-101.9669 0-.6411.6428.6434.6412.6411-.6434zm47.9815 0-.6412.6428.6428.6412.6412-.6434zm47.9808 0-.6411.6428.6433.6412.6412-.6434zm-98.9706.254v.6423l-.3217-.3206zm47.9814 0v.6423l-.3217-.3206zm47.9809 0v.6423l-.3217-.3206zm-98.958.01.3217.3206-.3211.3216-.3211-.3205zm47.9809 0 .3217.3206-.3206.3216-.3217-.3205zm47.9814 0 .3212.3206-.3206.3216-.3211-.3205zm-98.9618 0v.6423l-.3216-.3206zm47.9809 0v.6423l-.3217-.3206zm47.9814 0v.6423l-.3216-.3206zm-95.96 0 .3217.3206-.3201.3217zm47.9814 0 .3228.3206-.32.3217zm47.9809 0 .3233.3206-.3206.3217zm-98.9607.01.3217.3212-.3206.3211-.3217-.3206zm47.9814 0 .3212.3212-.3206.3211-.3212-.3206zm47.9809 0 .3217.3212-.3206.3211-.3217-.3206zm47.9814 0 .3211.3212-.3205.3211-.3217-.3206zm-146.9432.01v.6423l-.3217-.3206zm47.9814 0v.6423l-.3217-.3206zm47.9809 0v.6423l-.3217-.3206zm47.9814 0v.6423l-.3222-.3206zm-143.9409 0 .3216.3206-.3205.3212zm47.9808 0 .3206.3206-.3206.3212zm47.9815 0 .32.3206-.32.3212zm47.9808 0 .3206.3206-.3206.3212zm-146.9415.01.3211.3205-.3206.3217-.3211-.3206zm47.9808 0 .3217.3205-.3206.3217-.3216-.3206zm47.9809 0 .3217.3205-.3206.3217-.3217-.3206zm47.9814 0 .3217.3205-.3205.3217-.3217-.3206zm-146.9421.01v.6422l-.3217-.3205zm0 0 .3216.3205-.32.3217zm47.9797 0v.6422l-.3217-.3205zm0 0 .3223.3205-.3206.3217zm47.9798 0v.6422l-.3217-.3205zm0 0 .3233.3205-.3206.3217zm47.9797 0v.6422l-.3217-.3205zm0 0 .3234.3205-.3206.3217zm-146.9405.01.3212.3206-.3206.3217-.3211-.3206zm47.9809 0 .3217.3206-.3206.3217-.3216-.3206zm47.9815 0 .3211.3206-.3206.3217-.3211-.3206zm47.9809 0 .3216.3206-.3205.3217-.3217-.3206zm-146.9428 0v.6423l-.3216-.3206zm47.9809 0v.6423l-.3217-.3206zm47.9815 0v.6423l-.3217-.3206zm47.9809 0v.6423l-.3217-.3206zm-143.941 0 .3217.3206-.3201.3211zm47.9814 0 .3217.3206-.3206.3211zm47.9809 0 .3233.3206-.3205.3211zm47.9814 0 .3228.3206-.32.3211zm-146.9421.01.3217.3206-.3206.3217-.3217-.3206zm47.9814 0 .3212.3206-.3206.3217-.3212-.3206zm47.9809 0 .3217.3206-.3206.3217-.3217-.3206zm47.9814 0 .3212.3206-.3206.3217-.3217-.3206zm-146.9432 0v.6429l-.3217-.3206zm47.9814 0v.6429l-.3217-.3206zm47.9809 0v.6429l-.3217-.3206zm47.9815 0v.6429l-.3223-.3206zm-143.941 0 .3216.3206-.3205.3217zm47.9808 0 .3217.3206-.32.3217zm47.9815 0 .3228.3206-.32.3217zm47.9809 0 .3233.3206-.3206.3217zm-146.9416.01.3211.3206-.3206.3212-.3211-.3206zm47.9809 0 .3216.3206-.3205.3212-.3217-.3206zm47.9808 0 .3217.3206-.3205.3212-.3217-.3206zm47.9815 0 .3217.3206-.3212.3212-.3211-.3206zm-146.9427 0v.6422l-.3223-.3205zm41.9763 0v.6422l-.3217-.3205zm6.0046 0v.6422l-.3217-.3205zm41.9763 0v.6422l-.3217-.3205zm6.0045 0v.6422l-.3217-.3205zm41.9769 0v.6422l-.3222-.3205zm6.0046 0v.6422l-.3217-.3205zm-143.941 0 .3217.3206-.32.3211zm47.9809 0 .3222.3206-.3206.3211zm47.9814 0 .32.3206-.32.3211zm47.9809 0 .3206.3206-.3206.3211zm-104.9652.01.3216.3206-.3205.3216-.3218-.3205zm6.0045 0 .3217.3206-.3206.3216-.3217-.3205zm41.9769 0 .3211.3206-.3206.3216-.3217-.3205zm6.0045 0 .3217.3206-.3211.3216-.3212-.3205zm41.9764 0 .3217.3206-.3206.3216-.3217-.3205zm6.0045 0 .3217.3206-.3206.3216-.3217-.3205zm-104.9636.01.3217.3206-.3206.3217zm6.0046 0 .3217.3206-.3206.3217zm41.9763 0 .3233.3206-.3205.3217zm6.0045 0 .3234.3206-.3206.3217zm41.9764 0 .3233.3206-.3206.3217zm6.0051 0 .3228.3206-.3201.3217zm35.4731.1148-.1447.1453.2296.2285c-.029-.1244-.053-.2505-.085-.3738zm-138.9486.3528 1.2868 1.2828h-.6423l-.6434-.6411-.6412.6428h-.6422zm47.9808 0 1.2868 1.2828h-.6422l-.6429-.6411-.6417.6428h-.6417zm47.9815 0 1.2862 1.2828h-.6417l-.6434-.6411-.6412.6428h-.6422zm-98.959 0 1.2862 1.2823h-.6423l-.6434-.6412-.6412.6434h-.6422zm47.9808 0 1.2862 1.2823h-.6422l-.6434-.6412-.6406.6434h-.6423zm47.9815 0 1.2856 1.2823h-.6417l-.6434-.6412-.6411.6434h-.6423zm-98.9613.01 1.2868 1.2823h-.6423l-.6428-.6412-.6412.6434h-.6422zm47.9814 0 1.2863 1.2823h-.6417l-.6435-.6412-.6411.6434h-.6423zm47.9809 0 1.2868 1.2823h-.6423l-.6428-.6412-.6417.6434h-.6417zm47.9815 0 1.2862 1.2823h-.6417l-.6434-.6412-.6412.6434h-.6423zm-146.9405 0 1.2862 1.2823h-.6423l-.6433-.6412-.6407.6434h-.6422zm47.9814 0 1.2857 1.2823h-.6417l-.6434-.6412-.6412.6434h-.6423zm47.9809 0 1.2862 1.2823h-.6422l-.6434-.6412-.6412.6434h-.6417zm47.9814 0 1.2857 1.2823h-.6417l-.6434-.6412-.6412.6434h-.6422zm-146.9421.01 1.2862 1.2823h-.6417l-.6434-.6406-.6411.6429h-.6423zm47.9809 0 1.2867 1.2823h-.6422l-.6429-.6406-.6417.6429h-.6417zm47.9814 0 1.2862 1.2823h-.6417l-.6434-.6406-.6411.6429h-.6423zm47.9809 0 1.2868 1.2823h-.6423l-.6434-.6406-.6411.6429h-.6418zm-146.9399 0 1.2862 1.2829h-.6417l-.6434-.6411-.6412.6434h-.6422zm47.9809 0 1.2867 1.2829h-.6423l-.6433-.6411-.6412.6434h-.6417zm47.9808 0 1.2863 1.2829h-.6417l-.644-.6411-.6406.6434h-.6423zm47.9815 0 1.2862 1.2829h-.6423l-.6434-.6411-.6411.6434h-.6418zm-146.9411.01 1.2868 1.2823h-.6422l-.6435-.6411-.6411.6434h-.6423zm47.9809 0 1.2868 1.2823h-.6423l-.6428-.6411-.6417.6434h-.6418zm47.9815 0 1.2862 1.2823h-.6417l-.6434-.6411-.6412.6434h-.6423zm47.9808 0 1.2868 1.2823h-.6423l-.6428-.6411-.6417.6434h-.6417zm-146.9399 0 1.2868 1.2828h-.6423l-.6434-.6411-.6411.6434h-.6423zm47.9809 0 1.2868 1.2828h-.6423l-.6434-.6411-.6406.6434h-.6423zm47.9814 0 1.2857 1.2828h-.6417l-.6434-.6411-.6411.6434h-.6423zm47.9809 0 1.2862 1.2828h-.6422l-.6434-.6411-.6412.6434h-.6417zm-146.9421.01 1.2867 1.2828h-.6422l-.6429-.6411-.6417.6428h-.6417zm47.9814 0 1.2862 1.2828h-.6417l-.6434-.6411-.6412.6428h-.6422zm47.9809 0 1.2868 1.2828h-.6423l-.6428-.6411-.6417.6428h-.6418zm47.9814 0 1.2863 1.2828h-.6418l-.6433-.6411-.6412.6428h-.6423zm-146.9404 0 1.2867 1.2823h-.6422l-.6434-.6417-.6406.6434h-.6423zm47.9814 0 1.2862 1.2823h-.6417l-.6434-.6417-.6412.6434h-.6422zm47.9809 0 1.2862 1.2823h-.6423l-.6434-.6417-.6411.6434h-.6418zm47.9814 0 1.2857 1.2823h-.6418l-.6433-.6417-.6412.6434h-.6423zm-146.9421.01 1.2862 1.2823h-.6417l-.6434-.6412-.6412.6434h-.6423zm47.9809 0 1.2867 1.2823h-.6423l-.6428-.6412-.6417.6434h-.6417zm47.9808 0 1.2868 1.2823h-.6417l-.6434-.6412-.6412.6434h-.6422zm47.9815 0 1.2867 1.2823h-.6422l-.6434-.6412-.6412.6434h-.6417zm-146.94 0 1.2863 1.2823h-.6418l-.6433-.6412-.6412.6434h-.6423zm47.9809 0 1.2868 1.2823h-.6423l-.6434-.6412-.6411.6434h-.6417zm47.9809 0 1.2862 1.2823h-.6417l-.6439-.6412-.6407.6434h-.6423zm47.9814 0 1.2862 1.2823h-.6422l-.6434-.6412-.6412.6434h-.6422zm-104.9658.01 1.2868 1.2829h-.6423l-.6428-.6412-.6417.6429h-.6417zm6.0046 0 1.2867 1.2823h-.6422l-.6429-.6406-.6411.6429h-.6423zm41.9768 0 1.2863 1.2829h-.6417l-.6434-.6412-.6412.6429h-.6423zm6.0046 0 1.2868 1.2823h-.6423l-.6434-.6406-.6412.6429h-.6422zm41.9764 0 1.2867 1.2829h-.6423l-.6433-.6412-.6412.6429h-.6417zm6.0045 0 1.2868 1.2823h-.6423l-.6428-.6406-.6412.6429h-.6423zm-98.9591 0 1.2868 1.2829h-.6417l-.6439-.6411-.6406.6433h-.6423zm47.9815 0 1.2862 1.2829h-.6423l-.6434-.6411-.6411.6433h-.6423zm47.9809 0 1.2862 1.2829h-.6423l-.6434-.6411-.6406.6433h-.6423zm-101.9669 0 1.2868 1.2824h-.6423l-.6434-.6412-.6412.6434h-.6417zm47.9814 0 1.2857 1.2824h-.6417l-.644-.6412-.6406.6434h-.6423zm47.9809 0 1.2862 1.2824h-.6422l-.6434-.6412-.6412.6434h-.6417zm-98.9684.8964.3216.3216h-.6422zm47.9814 0 .3211.3216h-.6417zm47.9809 0 .3217.3216h-.6423zm-98.9591.01.3217.3217h-.6423zm47.9809 0 .3217.3217h-.6417zm47.9815 0 .3217.3217h-.6423zm-98.9607.01.3211.3217h-.6418zm47.9808 0 .3217.3217h-.6423zm47.9815 0 .3211.3217h-.6417zm47.9808 0 .3217.3217h-.6422zm-146.9404.01.3217.3212h-.6418zm47.9814 0 .3217.3212h-.6423zm47.9809 0 .3217.3212h-.6423zm47.9814 0 .3217.3212h-.6423zm-146.9421 0 .3217.3217h-.6423zm47.9814 0 .3211.3217h-.6422zm47.9809 0 .3217.3217h-.6423zm47.9809 0 .3217.3217h-.6423zm-146.94.01.3217.3217h-.6422zm47.9809 0 .3217.3217h-.6423zm47.9809 0 .3217.3217h-.6417zm47.9814 0 .3217.3217h-.6422zm-146.941.01.3217.3217h-.6423zm47.9814 0 .3212.3217h-.6417zm47.9809 0 .3217.3217h-.6422zm47.9815 0 .3211.3217h-.6423zm-146.9405.01.3217.3211h-.6423zm47.9809 0 .3217.3211h-.6418zm47.9814 0 .3217.3211h-.6423zm47.9809 0 .3217.3211h-.6423zm-146.9416 0 .3211.3223h-.6417zm47.9809 0 .3217.3223h-.6423zm47.9814 0 .3212.3223h-.6423zm47.9809 0 .3217.3223h-.6423zm-146.9405.01.3217.3217h-.6417zm47.9815 0 .3216.3217h-.6422zm47.9808 0 .3217.3217h-.6422zm47.9815 0 .3211.3217h-.6417zm-146.9422.01.3217.3217h-.6422zm47.9809 0 .3217.3217h-.6423zm47.9815 0 .3216.3217h-.6422zm47.9808 0 .3217.3217h-.6423zm-146.9399.01.3217.3211h-.6423zm47.9809 0 .3217.3211h-.6423zm47.9809 0 .3217.3211h-.6417zm47.9814 0 .3217.3211h-.6423zm-104.9652 0 .3211.3223h-.6423zm6.0045 0 .3211.3217h-.6417zm41.9763 0 .3217.3223h-.6423zm6.0046 0 .3216.3217h-.6422zm41.9763 0 .3217.3223h-.6423zm6.0051 0 .3212.3217h-.6418zm-104.9641.01.3217.3217h-.6423zm6.0045 0 .3217.3217h-.6417zm41.9769 0 .3211.3217h-.6417zm6.0045 0 .3217.3217h-.6422zm41.9764 0 .3217.3217h-.6423zm6.0045 0 .3217.3217h-.6417z" fill="#141218" stroke-width="7.49998"/></g></svg>