<svg height="800" viewBox="0 0 56 56" width="800" xmlns="http://www.w3.org/2000/svg"><path d="m28.188778 11.242267c-.02179-.000714-.04732.0017-.07212.0076-.398345.09497-.574664.854834-.574664.854834-.08922-.332415-.696863-.423527-.840288 0-.101621.301002.178005.837544.433177 1.239067-6.040445 1.072805-9.1629 9.017689-14.287459 14.201166-.275193.362482-.03276.900247.403071.899342l2.019573-.0043c-.002-.0088.0025 0 .0036 0l.05533-.000073.08299-.000218.04113-.000074.01821-.000075.04186-.000074.08299-.000144.05533-.00015h.0072l.05533-.000145.08299-.000146.04149-.000073.01821-.000073.04149-.000077.08299-.000218.05533-.000073h.0036.0012.0029l.05533-.000149.08299-.000145.0415-.000146.02184-.000007.04186-.000073.08299-.000218.05533-.00015.0026-.0026.0026.0026.05533-.000073.083-.000218.04149-.000073.02184-.000076.04149-.000074.083-.000144.05532-.000146.0025-.0025.0025.0025.05533-.000149c-.06006-.04593.01096-.03021.05279-.03021l.02913.03021h.0018c-.000255.000392-.000401.000847-.000656.0012l.05169.05162.083-.08321.08299-.000144-.165625.166207-.08044-.08026c-.0072.01204-.01096.02438-.01821.0364l.07207.07175-.165626.166282-.01096-.01132c-.01456.04127-.03276.08231-.04622.124856l.05788-.05813.166353.165698-.165625.16628v-.08299l.08263-.08307-.08336-.08299v.000073l-.083.08314.08336.08285v.083l-.1012-.100755c-.0033.01529-.0072.03021-.01096.04557l.08336.08314h-.08299l-.01456-.01529c-.01456.08809-.01821.269842-.01821.269842v11.885446s.511764.695452.969145.969149l4.123016 2.467093c.305041-3.875972.900127-14.01502 6.022969-14.144459 5.242247-.132464 6.855722 9.364596 6.886377 14.144473l3.649687-2.467093c.441617-.298526.969144-.969221.969144-.969221v-11.885441s-.01084-.214476-.02914-.31822l-.137237-.136612.08633-.08645c-.0036-.0142-.01084-.02767-.01457-.04149l-.100056.100357-.166362-.165698.165628-.16628.01818.01821c-.01818-.04088-.0419-.079-.06333-.118345l-.12121-.120779.0543-.000145c-.0024-.0033-.0036-.0069-.0072-.01024l3.800168-.0081c.446795-.000935.621369-.686176.385822-.92163-5.297681-5.295745-9.02374-13.814334-13.366039-14.118894-.446603-.03131.762458-1.056934.522614-1.237346-.441907-.332415-.751177.189941-.751177.189941s.264636-.759889-.132866-.902352c-.397393-.142474-.751141.569865-.751141.569865s-.15579-.709511-.502771-.719946zm-11.367354 17.524097v-.04251c-.000036.000109-.00011.000182-.000146.000291zm4.537005-.367462h.083l-.165625.166281-.166353-.165772.08299-.000149.083.08285zm6.200275 0h.08296l-.165616.166281-.166362-.165772.08296-.000149.08296.08285zm6.200181 0h.08296l-.165628.166281-.16635-.165772.08296-.000149.08296.08285zm-12.524947.000145h.08299l-.04149.04158zm6.200208 0h.08296l-.04154.04158zm6.200241 0h.08296l-.04154.04158zm-12.580198.000368-.165626.16628-.166353-.165697h.08299l.083.08278.08299-.08314zm6.200242 0-.165628.16628-.16635-.165697h.08296l.08296.08278.08296-.08314zm6.200217 0-.165628.16628-.16635-.165697h.08296l.08296.08278.08296-.08314zm-12.52517.000295-.04149.04158-.0415-.04135zm6.200238 0-.04154.04158-.04154-.04135zm6.200218 0-.04154.04158-.04154-.04135zm-12.746231.000488h.08299l-.165625.16628-.166354-.165699.083-.000218.08299.08285zm6.200201 0h.08296l-.165628.16628-.166362-.165699.08296-.000218.08296.08285zm6.200217 0h.08296l-.165628.16628-.16635-.165699.08296-.000218.08296.08285zm-12.524982.000145h.08299l-.0415.04158zm6.200279 0h.08296l-.04154.04158zm6.200218 0h.08296l-.04154.04158zm-12.580174.000429-.165625.166208-.166354-.165697h.083l.08299.08285.08299-.08321zm6.200205 0-.165628.166208-.16635-.165697h.08296l.08296.08285.08296-.08321zm6.20029 0-.165628.166208-.16635-.165697h.08296l.08296.08285.08296-.08321zm6.200205 0-.165628.166208-.16635-.165697h.08296l.08296.08285.08296-.08321zm-18.725411.000295-.04149.04158-.04149-.04142zm6.200201 0-.04154.04158-.04154-.04142zm6.200218 0-.04154.04158-.04154-.04142zm6.20029 0-.04154.04158-.04154-.04142zm-18.94652.00043h.083l-.165626.16628-.166353-.165697.08299-.000219.083.08292zm6.200212 0h.08296l-.165628.16628-.16635-.165697.08296-.000219.08296.08292zm6.200278 0h.08296l-.165628.16628-.16635-.165697.08296-.000219.08296.08292zm6.200217 0h.08296l-.165628.16628-.16635-.165697.08296-.000219.08296.08292zm-18.725198.000146h.08299l-.04149.04165zm6.200205 0h.08296l-.04154.04165zm6.20029 0h.08296l-.04154.04165zm6.200169 0h.08296l-.04154.04165zm-18.780413.000429-.165626.166281-.166353-.165771h.08299l.083.08285.08299-.08321zm6.200203 0-.165628.166281-.16635-.165771h.08296l.08296.08285.08296-.08321zm6.200254 0-.165628.166281-.16635-.165771h.08296l.08296.08285.08296-.08321zm6.200205 0-.165615.166281-.166363-.165771h.08296l.08296.08285.08296-.08321zm-18.725373.000295-.0415.04156-.04149-.04135zm6.200211 0-.04154.04156-.04154-.04135zm6.200278 0-.04154.04156-.04154-.04135zm6.200182 0-.04154.04156-.04154-.04135zm-18.946337.000488h.083l-.165626.16628-.166352-.165698.08299-.000222.083.08285zm6.200246 0h.08296l-.165989.16628-.16635-.165698.08296-.000222.08296.08285zm6.200205 0h.08296l-.165616.16628-.166362-.165698.08296-.000222.08296.08285zm6.200218 0h.08296l-.165627.16628-.166351-.165698.08296-.000222.08296.08285zm-18.72516.000146h.08299l-.04149.04156zm6.200167 0h.08296l-.04154.04156zm6.20029 0h.08296l-.04154.04156zm6.200205 0h.08296l-.04154.04156zm-18.780411.000428-.165626.166282-.166353-.165771h.08299l.083.08285.08299-.08321zm6.200237 0-.165616.166282-.166362-.165771h.08296l.08296.08285.08296-.08321zm6.200217 0-.165627.166282-.166351-.165771h.08296l.08296.08285.08296-.08321zm6.200218 0-.165628.166282-.16635-.165771h.08296l.08296.08285.08296-.08321zm-18.725383.000295-.04149.04158-.0415-.04142zm6.200173 0-.04154.04158-.04154-.04142zm6.200278 0-.04154.04158-.04154-.04142zm6.200218 0-.04154.04158-.04154-.04142zm-18.946443.000492h.083l-.165626.166281-.166354-.165771.083-.000146.08299.08285zm6.200207 0h.08296l-.165628.166281-.16635-.165771.08296-.000146.08296.08285zm6.200205 0h.08296l-.165616.166281-.166362-.165771.08296-.000146.08296.08285zm6.20029 0h.08296l-.165628.166281-.16635-.165771.08296-.000146.08296.08285zm-18.725267.000145h.08299l-.0415.04158zm6.200274 0h.08296l-.04154.04158zm6.200218 0h.08296l-.04154.04158zm6.20029 0h.08296l-.04154.04158zm-18.780459.000369-.165625.16628-.166354-.165699h.083l.08299.08278.083-.08314zm6.200212 0-.165628.16628-.166362-.165699h.08296l.08296.08278.08296-.08314zm6.200206 0-.165628.16628-.16635-.165699h.08296l.08296.08278.08296-.08314zm6.200289 0-.165627.16628-.166351-.165699h.08296l.08296.08278.08296-.08314zm-18.72549.000291-.04149.04156-.04149-.04135zm6.20028 0-.04154.04156-.04154-.04135zm6.200206 0-.04154.04156-.04154-.04135zm6.200254 0-.04154.04156-.04154-.04135zm-18.946478.000491h.083l-.165625.166281-.166354-.165699.08299-.000218.083.08285zm6.200206 0h.08296l-.165627.166281-.166351-.165699.08296-.000218.08296.08285zm6.20029 0h.08296l-.165627.166281-.166351-.165699.08296-.000218.08296.08285zm6.200169 0h.08296l-.165628.166281-.16635-.165699.08296-.000218.08296.08285zm-18.725158.000146h.083l-.04149.04156zm6.200201 0h.08296l-.04154.04156zm6.20029 0h.08296l-.04154.04156zm6.200182 0h.08296l-.04154.04156zm-12.580211.000429-.165628.166208-.16635-.165698h.08296l.08296.08285.08296-.08321zm6.200242 0-.165628.166208-.16635-.165698h.08296l.08332.08285.08296-.08321zm6.200217 0-.165627.166208-.166351-.165698h.08296l.08296.08285.08296-.08321zm-18.72538.000295-.0415.04157-.04149-.04142zm6.200207 0-.04154.04157-.04154-.04142zm6.200253 0-.04154.04157-.04154-.04142zm6.200206 0-.04154.04157-.04154-.04142zm-12.746224.00043.08296.000072-.165628.166208-.16635-.165698.08296-.000222.08296.08292zm6.200206 0 .08296.000072-.165627.166208-.166351-.165698.08296-.000222.08296.08292zm6.200278 0 .08296.000072-.165628.166208-.16635-.165698.08296-.000222.08296.08292zm-13.176451.000072h.08299l-.16599.166208-.166353-.165698.083-.000149.08299.08285zm6.200241 0h.08296l-.165628.166208-.16635-.165698.08296-.000149.08296.08285zm6.200218 0h.08296l-.165628.166208-.16635-.165698.08296-.000149.08296.08285zm-11.748989.000073h.08296l-.04154.04165zm6.200205 0h.08296l-.04154.04165zm6.200218 0h.08296l-.04154.04165zm-13.176386.000072h.08299l-.04149.04158zm6.200249 0h.08296l-.04154.04158zm6.200205 0h.08296l-.04154.04158zm-12.580167.000369-.165625.16628-.166353-.165699h.08299l.08299.08278.08299-.08314zm.775928 0-.165625.16628-.166354-.165771h.08299l.08336.08285.083-.08321zm5.424282 0-.165627.16628-.166351-.165699h.08296l.08296.08278.08296-.08314zm.77592 0-.165616.16628-.166362-.165771h.08296l.08296.08285.08296-.08321zm5.424286 0-.165628.16628-.16635-.165699h.08296l.08296.08278.08296-.08314zm.776004 0-.165628.16628-.16635-.165771h.08296l.08296.08285.08296-.08321zm-13.301203.000295-.0415.04158-.04149-.04135zm.776 0-.0415.04158-.04149-.04135zm5.424279 0-.04154.04158-.04154-.04135zm.775932 0-.04154.04158-.04154-.04135zm5.424285 0-.04154.04158-.04154-.04135zm.775992 0-.04154.04158-.04154-.04135zm-13.41255.01893-.000072.083-.08263.08314.08299.08285.000291.08299-.166353-.165697zm6.200168 0v.083l-.0826.08314.08296.08285.000409.08299-.166362-.165697zm6.200218 0v.083l-.08296.08314.08296.08285.000361.08299-.16635-.165697zm-12.787912.00071.165989.165916-.165989.165989-.165989-.165989zm6.200246 0 .165989.165916-.165989.165989-.165989-.165989zm6.200206 0 .165989.165916-.165989.165989-.165989-.165989zm-12.787725.000579.166354.165771-.165625.16628v-.08296l.08263-.08314-.08299-.08285zm0 0v.08299l-.08299.08314.08299.08285.000219.08307-.166353-.165771zm6.200204 0 .166362.165771-.165628.16628v-.08296l.08296-.08314-.08296-.08285zm0 0-.000073.08299-.08296.08314.08296.08285.000361.08307-.16635-.165771zm6.200289 0 .166351.165771-.165628.16628v-.08296l.08296-.08314-.08296-.08285zm0 0v.08299l-.08296.08314.08296.08285.000362.08307-.166351-.165771zm-12.787947.000713.165989.16599-.165989.165915-.165989-.165915zm6.200209 0 .165989.16599-.165989.165915-.165989-.165915zm6.200278 0 .165989.16599-.165989.165915-.165989-.165915zm6.200218 0 .165989.16599-.165989.165915-.165989-.165915zm-18.988013.000667.166354.165697-.165626.166281-.166354-.165698zm0 0v.08292l-.08263.08321.083.08278.000291.08307v-.083l.083-.08314-.083-.08285zm6.200274 0 .166362.165697-.165628.166281v-.083l.0826-.08314-.08296-.08285zm0 0-.000145.08292-.08296.08321.08296.08278.000374.08307-.166363-.165698zm6.200218 0 .16635.165697-.165628.166281v-.083l.08296-.08314-.08332-.08285zm0 0v.08292l-.08296.08321.08296.08278.000361.08307-.16635-.165698zm6.200289 0 .166351.165697-.165628.166281v-.083l.08296-.08314-.08296-.08285zm0 0v.08292l-.08296.08321.08296.08278.000362.08307-.166351-.165698zm-18.988235.000669.165989.165989-.165989.165989-.165989-.165989zm6.20028 0 .165989.165989-.165989.165989-.165989-.165989zm6.200205 0 .165989.165989-.165989.165989-.165989-.165989zm6.200254 0 .165989.165989-.165989.165989-.165989-.165989zm-18.987974.000666.000145.000073.165989.165698-.165625.166062v.000218l-.000146-.000072-.165989-.165625.165626-.166135zm6.200211 0 .000145.000073.165989.165698-.165628.166135v.000145l-.16635-.165697.165615-.166135zm6.200242 0 .16635.165771-.165616.166208-.166362-.165625.165628-.166208zm.000915.331979v-.08292l.08296-.08321-.08296-.08278-.000373-.06923v.06916l-.08296.08321.08296.08278zm6.199555-.331979v.000073l.166351.165698-.165628.166208v-.08292l.0826-.08321-.08296-.08278-.000362-.05933v.05926l-.08296.08321.08296.08278.000398.08307-.166351-.165697.165628-.166135zm-18.988086.000714.165989.165989-.165989.165989-.16599-.165989zm6.200275 0 .165989.165989-.165989.165989-.165989-.165989zm6.200218 0 .165989.165989-.165989.165989-.165989-.165989zm6.200278 0 .165989.165989-.165989.165989-.165989-.165989zm-18.988007.000666.166353.165697-.165625.166282v-.083l.08263-.08314-.08299-.08278zm0 0v.08299l-.083.08314.083.08285.000217.083-.166352-.165699zm6.200208 0 .16635.165697-.165628.166282-.16635-.165699zm0 0v.08299l-.0826.08314.08296.08285.000289.083v-.083l.08296-.08314-.08332-.08278zm6.200277 0 .166363.165697-.165628.166282v-.083l.08296-.08314-.08296-.08278zm0 0v.08299l-.08296.08314.08296.08285.000374.083-.166363-.165699zm6.200182 0 .16635.165697-.165628.166282v-.08303l.08296-.08314-.08332-.08278zm0 0v.08299l-.08296.08314.08296.08285.000361.083-.16635-.165699zm-18.988122.000714.165989.165915-.165989.16599-.165989-.16599zm6.200202 0 .165989.165915-.165989.16599-.165989-.16599zm6.20029 0 .165989.165915-.165989.16599-.165989-.16599zm6.20017 0 .166001.165915-.166001.16599-.165989-.16599zm-18.98797.000578.166354.165771-.165626.16628-.166353-.165771zm0 0v.08299l-.083.08314.083.08285.000291.08307v-.083l.083-.08314-.08336-.08285zm6.200243 0 .16635.165771-.165628.16628-.16635-.165771zm0 0v.08299l-.08296.08314.08296.08285.000217.08307v-.083l.08296-.08314-.08296-.08285zm6.200217 0 .166351.165771-.165628.16628v-.08299l.08296-.08314-.08332-.08285zm0 0v.08299l-.0826.08314.08296.08285.000361.08307-.16635-.165771zm6.200278 0 .166351.165771-.165616.16628v-.08299l.08296-.08314-.08296-.08285zm0 0v.08299l-.08296.08314.08296.08285.000362.08307-.166351-.165771zm-18.988192.00071.165989.165989-.165989.165917-.165989-.165917zm6.200237 0 .166001.165989-.166001.165917-.165989-.165917zm6.200217 0 .165989.165989-.165989.165917-.165989-.165917zm6.20029 0 .165989.165989-.165989.165917-.165989-.165917zm-13.563732.000669v.083l-.08299.08314.08299.08285.000219.08299-.166354-.165698zm.775921 0 .16635.165698-.165616.166282-.16635-.165699zm0 0v.083l-.08296.08314.08296.08278.000289.08307v-.08299l.0826-.08314-.08296-.08285zm5.424286 0v.083l-.08296.08314.08296.08285.000361.08299-.16635-.165698zm.776004 0 .16635.165698-.165628.166282v-.083l.08296-.08314-.08296-.08285zm0 0v.083l-.08296.08314.08296.08278.000361.08307-.16635-.165698zm5.424286 0v.083l-.08296.08314.08296.08285.000361.08299-.16635-.165698zm.775919 0 .166351.165698-.165616.166282v-.083l.08296-.08314-.08296-.08285zm0 0v.083l-.0826.08314.08296.08278.000373.08307-.166362-.165698zm-13.56387.000666.16599.16599-.16599.165989-.165989-.165989zm.775928 0 .165988.16599-.165988.165989-.16599-.165989zm5.424273 0 .166001.16599-.166001.165989-.165989-.165989zm.776004 0 .165989.16599-.165989.165989-.165989-.165989zm5.424286 0 .165989.16599-.165989.165989-.165989-.165989zm.775931 0 .165989.16599-.165989.165989-.165989-.165989zm-13.563731.000671.166354.16577-.165625.166208v-.08292l.08299-.08314-.08336-.08285zm.776001 0 .166354.16577-.165626.166208v-.08292l.083-.08321-.083-.08278zm5.424277 0 .166351.16577-.165989.166208v-.08292l.08296-.08314-.08296-.08285zm.775932 0 .16635.16577-.165628.166208v-.08292l.0826-.08321-.08296-.08278zm5.424286 0 .16635.16577-.165628.166208v-.08292l.0826-.08314-.08296-.08285zm.775884 0 .166362.16577-.165628.166208v-.08292l.08296-.08321-.08296-.08278zm-15.50165.03604-.000073.04149-.08263.08321.083.08278.000146.04149v-.04142l.08299-.08321-.08299-.08278zm6.200209.01383v.02767l-.08296.08321.08296.08278.000145.0554v-.05533l.0826-.08321-.08296-.08278zm-4.26363.02439-.083.08292.083.083.08299-.083zm6.200281 0-.08296.08292.08296.083.08296-.083zm6.200206 0-.08296.08292.08296.083.08296-.083zm-13.175177.0013-.08299.08299.08299.08292.083-.08292zm6.200207 0-.08296.08299.08296.08292.08296-.08292zm6.20029 0-.08296.08299.08296.08292.08296-.08292zm6.20017 0-.08296.08299.08296.08292.08296-.08292zm-19.375429.0013-.083.08299.083.083.08299-.083zm6.200242 0-.08296.08299.08296.083.08296-.083zm6.200217 0-.08296.08299.08296.083.08296-.083zm6.200278 0-.08296.08299.08296.083.08296-.083zm-19.37539.0013-.083.083.083.08299.08299-.08299zm6.200275 0-.08296.083.08296.08299.08296-.08299zm6.200218 0-.08296.083.08296.08299.08296-.08299zm6.200278 0-.08296.083.08296.08299.08296-.08299zm-19.375462.0013-.08299.08292.08299.083.083-.083zm6.200202 0-.08296.08292.08296.083.08296-.083zm6.20029 0-.08296.08292.08296.083.08296-.083zm6.20017 0-.08296.08292.08296.083.08296-.083zm-19.375424.0013-.083.083.083.08292.08299-.08292zm6.200237 0-.08296.083.08296.08292.08296-.08292zm6.200217 0-.08296.083.08296.08292.08296-.08292zm6.20029 0-.08296.083.08296.08292.08296-.08292zm-13.175258.0013-.08299.08299.08299.083.083-.083zm6.200277 0-.08296.08299.08296.083.08296-.083zm6.200217 0-.08296.08299.08296.083.08296-.083zm-13.176422.000072-.083.08292.083.083.08299-.083zm6.200201 0-.08296.08292.08296.083.08296-.083zm6.20029 0-.08296.08292.08296.083.08296-.083zm-12.788892.03276.000074.08299-.04149-.04142zm6.200202 0v.08299l-.04154-.04142zm6.200218 0v.08299l-.04154-.04142zm-12.788019.000667.04149.0415-.04149.04149-.04149-.04149zm6.200281 0 .04154.0415-.04154.04149-.04154-.04149zm6.200206 0 .04154.0415-.04154.04149-.04154-.04149zm-12.78765.000669.000145.083-.04149-.04142zm6.200201 0 .000156.083-.04154-.04142zm6.200289 0v.083l-.04154-.04142zm-12.400199.000073.04149.04142-.04149.04157zm6.200211 0 .04154.04142-.04154.04157zm6.200241 0 .04154.04142-.04154.04157zm-12.78827.000667.04149.0415-.04149.04149-.04149-.04149zm6.200207 0 .04154.0415-.04154.04149-.04154-.04149zm6.20029 0 .04154.0415-.04154.04149-.04154-.04149zm6.20017 0 .04154.0415-.04154.04149-.04154-.04149zm-18.987903.000669.000146.083-.04149-.04143zm6.200284 0 .000145.083-.04154-.04143zm6.20017 0v.083l-.04154-.04143zm6.200289 0v.083l-.04154-.04143zm-18.600451.000072.04149.04135-.04149.04158zm6.200245 0 .04154.04135-.04154.04158zm6.200206 0 .04154.04135-.04154.04158zm6.200289 0 .04154.04135-.04154.04158zm-18.988558.00058.04149.04149-.04149.0415-.0415-.0415zm6.200242 0 .04154.04149-.04154.0415-.04154-.0415zm6.200217 0 .04154.04149-.04154.0415-.04154-.0415zm6.200206 0 .04154.04149-.04154.0415-.04154-.0415zm-18.987792.000714.000146.08299-.04149-.04142zm.000218 0 .04149.04135-.04149.04165zm6.200064 0 .000144.08299v-.08299l.04154.04135-.04154.04165-.04154-.04142zm6.200205 0v.08299l-.04154-.04142zm.000373 0 .04154.04135-.04154.04165zm6.200062 0v.08299-.08299l.04154.04135-.04154.04165-.04154-.04142zm-18.988266.000665.04149.0415-.04149.04149-.04149-.04149zm6.200238 0 .04154.0415-.04154.04149-.04154-.04149zm6.200217 0 .04154.0415-.04154.04149-.04154-.04149zm6.200278 0 .04154.0415-.04154.04149-.04154-.04149zm-18.987934.000666.000146.083-.04149-.04142zm6.200207 0 .000145.083-.04154-.04142zm6.20029 0v.083l-.04154-.04142zm6.200206 0v.083l-.04154-.04142zm-18.600411.000077.0415.04135-.0415.04158zm6.200204 0 .04154.04135-.04154.04158zm6.20029 0 .04154.04135-.04154.04158zm6.200206 0 .04154.04135-.04154.04158zm-18.988518.000578.0415.04149-.0415.0415-.04149-.0415zm6.200201 0 .04154.04149-.04154.0415-.04154-.0415zm6.20029 0 .04154.04149-.04154.0415-.04154-.0415zm6.200217 0 .04154.04149-.04154.0415-.04154-.0415zm-18.987944.000666.000146.083-.0415-.04142zm6.200278 0 .000144.083-.04154-.04142zm6.200217 0v.083l-.04154-.04142zm6.200242 0v.083l-.04154-.04142zm-18.600446.000073.04149.04142-.04149.04158zm6.200276 0 .04154.04142-.04154.04158zm6.200217 0 .04154.04142-.04154.04158zm6.200242 0 .04154.04142-.04154.04158zm-18.988553.00067.04149.04149-.04149.04149-.04149-.04149zm6.200284 0 .04154.04149-.04154.04149-.04154-.04149zm6.200206 0 .04154.04149-.04154.04149-.04154-.04149zm6.200181 0 .04154.04149-.04154.04149-.04154-.04149zm-13.563549.000666.000146.08299-.04149-.04142zm.775883 0 .00018.08299-.04154-.04142zm5.424286 0v.08299l-.04154-.04142zm.775931 0v.08299l-.04154-.04142zm5.424359 0v.08299l-.04154-.04142zm.775919 0v.08299l-.04154-.04142zm-12.400206.000073.04154.04135-.04154.04157zm6.20029 0 .04154.04135-.04154.04157zm6.200217 0 .04154.04135-.04154.04157zm-13.564206.000579.04149.04149-.04149.0415-.04149-.0415zm.775892 0 .04149.04149-.04149.0415-.04149-.0415zm5.424283 0 .04154.04149-.04154.0415-.04154-.0415zm.77592 0 .04154.04149-.04154.0415-.04154-.0415zm5.424286 0 .04154.04149-.04154.0415-.04154-.0415zm.776004 0 .04154.04149-.04154.0415-.04154-.0415zm-13.563366.000713.0415.04142-.0415.04158zm.776 0 .0415.04142-.0415.04158zm5.424274 0 .04154.04142-.04154.04158zm.775932 0 .04154.04142-.04154.04158zm5.424286 0 .04154.04142-.04154.04158zm.775931 0 .04154.04142-.04154.04158zm-17.760568.0222c-.01096.02512-.02913.04914-.03931.07499l.05716-.05734zm4.389217.03778.166354.165699-.165626.166437-.166354-.165771zm6.200244 0 .16635.165699-.165628.166281-.16635-.165771zm6.200205 0 .166363.165699-.165628.166281-.16635-.165771zm-12.78772.000671.166352.165771-.165625.166281-.166353-.165772zm6.200211 0 .16635.165771-.165627.166281-.166351-.165772zm6.200278 0 .16635.165771-.165616.166281-.166362-.165772zm-12.787944.000666.166353.165698-.165625.166281-.166353-.165699zm6.200206 0 .16635.165698-.165628.166281-.16635-.165699zm6.20029 0 .16635.165698-.165628.166281-.16635-.165699zm-12.787804.000713.166353.165699-.165626.16628-.166352-.165698zm6.200283 0 .16635.165699-.165628.16628-.16635-.165698zm6.200205 0 .16635.165699-.165615.16628-.166363-.165698zm6.200254 0 .16635.165699-.165628.16628-.16635-.165698zm-18.988196.000579.166352.165771-.165625.16628-.166353-.165771zm6.200276 0 .166351.165771-.165616.16628-.166362-.165771zm6.200182 0 .16635.165771-.165628.16628-.16635-.165771zm6.200278 0 .166362.165771-.165628.16628-.166362-.165771zm-18.987972.00071.166353.165771-.165625.166207-.166354-.165697zm6.200209 0 .16635.165771-.165628.166207-.16635-.165697zm6.200241 0 .166363.165771-.165628.166207-.16635-.165697zm6.200218 0 .16635.165771-.165627.166207-.166351-.165697zm-18.98805.00067.166353.165771-.165625.166208-.166353-.165699zm6.200239 0 .166362.165771-.165628.166208-.16635-.165699zm6.200218 0 .16635.165771-.165628.166208-.16635-.165699zm6.200277 0 .166363.165771-.165628.166208-.16635-.165699zm-18.988005.00071.166352.165698-.165625.16628-.166353-.165698zm6.200206 0 .166351.165698-.165628.16628-.16635-.165698zm6.20029 0 .16635.165698-.165627.16628-.166351-.165698zm6.200206 0 .16635.165698-.165616.16628-.166362-.165698zm-18.988157.00067.166353.165697-.165625.166281-.166353-.165772zm6.200201 0 .166362.165697-.165627.166281-.166351-.165772zm6.20029 0 .16635.165697-.165628.166281-.16635-.165772zm6.200218 0 .16635.165697-.165628.166281-.16635-.165772zm-18.988017.000709.166353.165699-.165626.16628-.166352-.165771zm6.200278 0 .16635.165699-.165616.16628-.166362-.165771zm6.200217 0 .166351.165699-.165628.16628-.16635-.165771zm6.200242 0 .16635.165699-.165615.16628-.166363-.165771zm-18.988191.000579.166352.165697-.165625.166282-.166353-.165699zm6.200284 0 .16635.165697-.165628.166282-.16635-.165699zm6.200205 0 .16635.165697-.165615.166282-.166363-.165699zm6.200182 0 .16635.165697-.165628.166282-.16635-.165699zm-18.987907.000714.166353.165697-.165625.166281-.166354-.165698zm6.200168 0 .16635.165697-.165616.166281-.166362-.165698zm6.20029 0 .16635.165697-.165628.166281-.16635-.165698zm6.200205 0 .166363.165697-.165628.166281-.166363-.165698zm-12.787943.000578.16635.165771-.165616.16628-.166362-.165771zm6.200205 0 .16635.165771-.165615.16628-.166363-.165771zm6.20029 0 .16635.165771-.165627.16628-.166351-.165771zm-13.176421.000073.166354.165698-.165626.16628-.166353-.165771zm6.200212 0 .16635.165698-.165628.16628-.16635-.165771zm6.200277 0 .166351.165698-.165616.16628-.166362-.165771zm-12.011871.000666.166354.165771-.165625.166208-.166354-.165699zm6.200282 0 .16635.165771-.165628.166208-.16635-.165699zm6.200205 0 .166363.165771-.165628.166208-.16635-.165699zm-13.176414.000076.166354.165699-.165625.16628-.166354-.165771zm6.200277 0 .16635.165699-.165615.16628-.166363-.165771zm6.200218 0 .16635.165699-.165628.16628-.16635-.165771zm-12.789077.07433-.08263.08321.08299.08278.083-.08314zm6.200243 0-.08296.08321.08296.08278.08296-.08314zm6.200218 0-.0826.08321.08296.08278.08296-.08314zm-12.787733.000801-.08263.08314.08299.08285.083-.08314zm6.200284 0-.08296.08314.08296.08285.08296-.08314zm6.200205 0-.0826.08314.08296.08285.08296-.08314zm-12.787943.000489-.083.08328.083.08271.08299-.08314zm6.200205 0-.0826.08328.08296.08271.08296-.08314zm6.20029 0-.08296.08328.08296.08271.08296-.08314zm6.200206 0-.08296.08328.08296.08271.07718-.07735c-.0024-.0061-.0036-.01238-.0072-.01893zm-18.987938.000801-.08299.08321.08299.08278.083-.08307zm6.200211 0-.0826.08321.08296.08278.08296-.08307zm6.200242 0-.08296.08321.08332.08278.08296-.08307zm6.200217 0-.08296.08321.08296.08278.08296-.08307zm-18.988196.000577-.08299.08321.08299.08271.08299-.08307zm6.200277 0-.08296.08321.08296.08271.08296-.08307zm6.200181 0-.08296.08321.08296.08271.08296-.08307zm6.200278 0-.08296.08321.08296.08271.08296-.08307zm-18.987972.000801-.08263.08314.08299.08285.08299-.08314zm6.200245 0-.08296.08314.08296.08285.08296-.08314zm6.200206 0-.08296.08314.08296.08285.08296-.08314zm6.20029 0-.08296.08314.08296.08285.08296-.08314zm-18.988122.000493-.08299.08328.08299.08271.083-.08307zm6.200238 0-.08296.08328.08296.08271.08296-.08307zm6.200218 0-.0826.08328.08296.08271.08296-.08307zm6.20029 0-.08296.08328.08296.08271.08296-.08307zm-18.988018.000844-.08263.08314.083.08285.08299-.08314zm6.200279 0-.08296.08314.08296.08285.08296-.08314zm6.200217 0-.0826.08314.08296.08285.08296-.08314zm6.200278 0-.08296.08314.08296.08285.08296-.08314zm-18.988228.000491-.083.08321.083.08278.08299-.08314zm6.2002 0-.0826.08321.08296.08278.08296-.08314zm6.20029 0-.08296.08321.08296.08278.08296-.08314zm6.200182 0-.08296.08321.08296.08278.08296-.08314zm-18.987907.000801-.083.08314.083.08285.08299-.08314zm6.200204 0-.0826.08314.08296.08285.08296-.08314zm6.20029 0-.08296.08314.08296.08285.08296-.08314zm6.200169 0-.08296.08314.08296.08285.08296-.08314zm-18.988191.000487-.083.08328.083.08271.08299-.08314zm6.200284 0-.08296.08328.08296.08271.08296-.08314zm6.200169 0-.08296.08328.08296.08271.08296-.08314zm6.200218 0-.0826.08328.08296.08271.08296-.08314zm-18.987906.000801-.083.08321.083.08278.08299-.08307zm6.200239 0-.08296.08321.08296.08278.08296-.08307zm6.200218 0-.08296.08321.08296.08278.08296-.08307zm6.200278 0-.08296.08321.08296.08278.08296-.08307zm-13.563942.000579-.08299.08321.08299.08278.083-.08314zm.775926 0-.08296.08321.08296.08271.08296-.08307zm5.424286 0-.08296.08321.08296.08278.08296-.08314zm.77592 0-.0826.08321.08296.08271.08296-.08307zm5.424358 0-.08296.08321.08296.08278.08296-.08314zm.775931 0-.08296.08321.08296.08271.08296-.08307zm-13.563656.000801-.08299.08314.08299.08285.083-.08314zm.775927 0-.08299.08314.08299.08285.083-.08314zm5.424276 0-.08296.08314.08296.08285.08296-.08314zm.775932 0-.0826.08314.08296.08285.08296-.08314zm5.424358 0-.08296.08314.08296.08285.08296-.08314zm.77592 0-.08296.08314.08296.08285.08296-.08314zm-13.564995.03276.04149.04142-.04149.04149-.04149-.04142zm6.200169 0 .04154.04142-.04154.04149-.04154-.04142zm6.20029 0 .04154.04142-.04154.04149-.04154-.04142zm-12.787805.000669.0415.04142-.0415.04158-.04149-.04143zm6.200284 0 .04154.04142-.04154.04158-.04154-.04143zm6.200206 0 .04154.04142-.04154.04158-.04154-.04143zm-12.787944.000666.0415.04142-.0415.04158-.04149-.04142zm6.200278 0 .04154.04142-.04154.04158-.04154-.04142zm6.200217 0 .04154.04142-.04154.04158-.04154-.04142zm6.200278 0 .04154.04142-.04154.04158-.04154-.04142zm-18.988008.000669.04149.04142-.04149.04158-.04149-.04142zm6.200209 0 .04154.04142-.04154.04158-.04154-.04142zm6.200278 0 .04154.04142-.04154.04158-.04154-.04142zm6.200181 0 .04154.04142-.04154.04158-.04154-.04142zm-18.988122.000667.04149.04149-.04149.04149-.0415-.04142zm6.200203 0 .04154.04149-.04154.04149-.04154-.04142zm6.200254 0 .04154.04149-.04154.04149-.04154-.04142zm6.200205 0 .04154.04149-.04154.04149-.04154-.04142zm-18.987971.000713.04149.04142-.04149.04158-.04149-.04142zm6.200244 0 .04154.04142-.04154.04158-.04154-.04142zm6.200206 0 .04154.04142-.04154.04158-.04154-.04142zm6.200218 0 .04154.04142-.04154.04158-.04154-.04142zm-18.988012.000666.04149.04142-.04149.04158-.0415-.04142zm6.2002 0 .04154.04142-.04154.04158-.04154-.04142zm6.20029 0 .04154.04142-.04154.04158-.04154-.04142zm6.200218 0 .04154.04142-.04154.04158-.04154-.04142zm-18.988017.000714.04149.04142-.04149.0415-.0415-.04142zm6.200278 0 .04154.04142-.04154.0415-.04154-.04142zm6.200218 0 .04154.04142-.04154.0415-.04154-.04142zm6.200278 0 .04154.04142-.04154.0415-.04154-.04142zm-18.988228.000666.04149.04142-.04149.04158-.04149-.0415zm6.200284 0 .04154.04142-.04154.04158-.04154-.0415zm6.200206 0 .04154.04142-.04154.04158-.04154-.0415zm6.200253 0 .04154.04142-.04154.04158-.04154-.0415zm-18.987979.000667.04149.04142-.04149.04158-.04149-.04142zm6.200204 0 .04154.04142-.04154.04158-.04154-.04142zm6.200254 0 .04154.04142-.04154.04158-.04154-.04142zm6.200206 0 .04154.04142-.04154.04158-.04154-.04142zm-18.988118.000669.04149.04142-.04149.04158-.0415-.04142zm6.20021 0 .04154.04142-.04154.04158-.04154-.04142zm6.20017 0 .04154.04142-.04154.04158-.04154-.04142zm6.200289 0 .04154.04142-.04154.04158-.04154-.04142zm-18.987978.000666.04149.04142-.04149.04156-.04149-.04142zm6.20024 0 .04154.04142-.04154.04156-.04154-.04142zm6.200217 0 .04154.04142-.04154.04156-.04154-.04142zm6.200206 0 .04154.04142-.04154.04156-.04154-.04142zm-13.563868.000714.04149.04142-.04149.04158-.0415-.04149zm.775924 0 .04154.04142-.04154.04149-.04154-.04142zm5.424358 0 .04154.04142-.04154.04158-.04154-.04149zm.77592 0 .04154.04142-.04154.04149-.04154-.04142zm5.424286 0 .04154.04142-.04154.04158-.04154-.04149zm.775932 0 .04154.04142-.04154.04149-.04154-.04142zm-13.563657.000666.0415.04142-.0415.04158-.04149-.04142zm.775929 0 .04149.04142-.04149.04158-.0415-.04142zm5.424275 0 .04154.04142-.04154.04158-.04154-.04142zm.775931 0 .04154.04142-.04154.04158-.04154-.04142zm5.424358 0 .04154.04142-.04154.04158-.04154-.04142zm.775932 0 .04154.04142-.04154.04158-.04154-.04142zm-13.371207.06013v.08299l-.083.08314.08336.08285v.083l-.166352-.165699zm6.200172 0v.08299l-.0826.08314.08332.08285v.083l-.16635-.165699zm6.200278 0v.08299l-.08296.08314.08332.08285v.083l-.166362-.16639zm-12.787795.00071.166353.165698-.165624.16628-.166354-.165697zm6.200201 0 .166362.165698-.165627.16628-.166351-.165697zm6.20029 0 .16635.165698-.165628.16628-.16635-.165697zm-12.787945.00067.166354.165697-.165625.166281-.166354-.165771zm6.200279 0 .166351.165697-.165628.166281-.16635-.165771zm6.200218 0 .16635.165697-.165628.166281-.16635-.165771zm-12.787805.000665.166352.165772-.165624.16628-.166354-.165771zm6.200284 0 .16635.165772-.165628.16628-.16635-.165771zm6.200205 0 .16635.165772-.165615.16628-.166363-.165771zm6.200254 0 .16635.165772-.165628.16628-.16635-.165771zm-18.988125.00067.166354.165699-.165626.16628-.166354-.165699zm6.200205 0 .166351.165699-.165616.16628-.166362-.165699zm6.200254 0 .16635.165699-.165627.16628-.166351-.165699zm6.200206 0 .16635.165699-.165616.16628v-.08299l.0826-.08307-.08332-.083v.000076l-.08296.08314.08332.08285v.083l-.16635-.165698zm-18.987974.00071.166354.165698-.165625.16628-.166354-.165697zm6.200175 0 .16635.165698-.165628.16628-.16635-.165697zm6.200205 0 .166351.165698-.165616.16628-.166362-.165697zm6.20029 0 .16635.165698-.165627.16628-.166351-.165697zm-18.988124.000579.000146.000073.16599.165697-.165625.166136v.000146l-.166354-.165699.165625-.166135zm6.200241 0 .16635.16577-.165616.166063v.000219l-.000144-.000074-.165989-.165625.165616-.166208zm6.200217 0v.000073l.165989.165697-.165627.166063v.000219-.000074l-.165989-.165625.165627-.166135zm6.200206 0v.000073l.165989.165697-.165616.166063v.000219-.000074l-.165989-.165625.165616-.166135zm-18.987863.000801.166354.165698-.165625.16628-.166354-.165771zm6.200208 0 .166351.165698-.165628.16628-.16635-.165771zm6.200278 0 .166362.165698-.165627.16628-.166351-.165771zm6.200218 0 .16635.165698-.165628.16628-.16635-.165771zm-18.988158.000578.166354.165699-.165625.16628-.166354-.165697zm6.200274 0 .166363.165699-.165628.16628-.16635-.165697zm6.200218 0 .16635.165699-.165627.16628-.166351-.165697zm6.200254 0 .16635.165699-.165628.16628-.16635-.165697zm-18.988054.000714.166354.165698-.165626.166281-.166354-.165699zm6.200279 0 .16635.165698-.165628.166281-.16635-.165699zm6.200217 0 .166351.165698-.165628.166281-.16635-.165699zm6.200242 0 .16635.165698-.165615.166281-.166363-.165699zm-18.988119.000666.166353.165699-.165626.16628-.166352-.165771zm6.200212 0 .16635.165699-.165628.16628-.16635-.165771zm6.200241 0 .166351.165699-.165616.16628-.166362-.165771zm6.200218 0 .16635.165699-.165628.16628-.16635-.165771zm-18.987981.000714.166354.165698-.165625.16628-.166354-.165771zm6.20017 0 .16635.165698-.165616.16628-.166362-.165771zm6.200217 0 .166351.165698-.165628.16628-.16635-.165771zm6.200278 0 .166351.165698-.165616.16628-.166362-.165771zm-13.56387.000578v.08299l-.083.08314.08336.08285v.08299l-.16635-.165711zm.775999 0 .16635.165699-.165628.16628-.16635-.165698zm5.424286 0v.08299l-.08296.08314.08332.08285v.08299l-.16635-.165698zm.77592 0 .16635.165699-.165616.16628-.166362-.165698zm5.424285 0v.08299l-.08296.08314.08332.08285v.08299l-.166351-.165698zm.775932 0 .16635.165699-.165627.16628-.166351-.165698zm-13.563731.000714.166354.165697-.165625.166282-.166354-.165699zm.775928 0 .166354.165697-.165626.166282-.166353-.165699zm5.42435 0 .16635.165697-.165615.166282-.166363-.165699zm.775932 0 .16635.165697-.165628.166282-.16635-.165699zm5.424286 0 .16635.165697-.165628.166282-.16635-.165699zm.77592 0 .166362.165697-.165628.166282-.16635-.165699zm-13.563796.000579.166352.165771-.165625.16628v-.08299l.08299-.08314-.08335-.08292zm.775927 0 .166353.165771-.165625.166207v-.08292l.08299-.08314-.08336-.08292zm5.424283 0 .16635.165771-.165628.16628v-.08299l.08296-.08314-.08332-.08292zm.77592 0 .166362.165771-.165628.166207v-.08292l.0826-.08314-.08332-.08292zm5.424286 0 .16635.165771-.165616.16628v-.08299l.08296-.08314-.08332-.08292zm.775968 0 .16635.165771-.165628.166207v-.08292l.08296-.08314-.08332-.08292zm-13.564858.07448-.083.08307.083.08285.08263-.08314zm6.2002 0-.0826.08307.08296.08285.08296-.08314zm6.20029 0-.08296.08307.08296.08285.0826-.08314zm-12.788017.000579v.000074l-.08263.08307.08336.08292.08263-.08314zm6.200279 0v.000074l-.08296.08307.08332.08292.08296-.08314zm6.200218 0v.000074l-.0826.08307.08332.08292.0826-.08314zm-12.787733.000714-.08263.08314.08299.08278.083-.08307zm6.200284 0-.08296.08314.08296.08278.0826-.08307zm6.200205 0-.08296.08314.08296.08278.08296-.08307zm6.200254 0-.08296.08314.08296.08278.0826-.08307zm-18.988197.000578v.000073l-.083.08314.08336.08285.083-.08307zm6.200205 0v.000073l-.08296.08314.08332.08285.08296-.08307zm6.200254 0v.000073l-.08296.08314.08332.08285.08296-.08307zm-12.787694.00071-.083.08314.083.08285.08263-.08314zm6.200173 0-.08296.08314.08296.08285.08296-.08314zm6.200206 0-.0826.08314.08296.08285.08296-.08314zm6.200289 0-.08296.08314.08296.08285.08296-.08314zm-18.988086.000713-.083.08314.08336.08285.08263-.08314zm6.200203 0-.0826.08314.08332.08278.0826-.08307zm6.20029 0-.08296.08314.08332.08278.0826-.08307zm6.200206 0-.08296.08314.08332.08278.08296-.08307zm-18.987935.000667-.083.08314.083.08285.08263-.08314zm6.200208 0-.08296.08314.08296.08285.08296-.08314zm6.200277 0-.08296.08314.08296.08285.0826-.08314zm6.200218 0-.08296.08314.08296.08285.08296-.08314zm-18.98823.00067-.08263.08314.08336.08285.08263-.08307zm6.200274 0-.08296.08314.08332.08285.08296-.08307zm6.200218 0-.08296.08314.08332.08285.0826-.08307zm6.200254 0-.08296.08314.08332.08285.08296-.08307zm-18.987982.00071-.083.08307.083.08285.08299-.08314zm6.200279 0-.08296.08307.08296.08285.0826-.08314zm6.200182 0-.08296.08307.08296.08285.08296-.08314zm6.200205 0-.0826.08307.08296.08285.08296-.08314zm-18.988119.000578v.000073l-.08299.08307.08336.08292.083-.08314zm6.200212 0v.000073l-.08296.08307.08332.08292.0826-.08314zm6.200241 0v.000073l-.08296.08307.08332.08292.08296-.08314zm6.200218 0v.000073l-.08296.08307.08332.08292.08296-.08314zm-18.987907.000714-.083.08314.083.08278.08299-.08307zm6.200168 0-.08296.08314.08296.08278.08296-.08307zm6.200218 0-.0826.08314.08296.08278.08296-.08307zm6.200278 0-.08296.08314.08296.08278.08296-.08307zm-12.787944.000733v.000073l-.08296.08314.08332.08285.08296-.08307zm6.200206 0v.000073l-.08296.08314.08332.08285.08296-.08307zm6.200217 0v.000073l-.0826.08314.08332.08285.08296-.08307zm-12.78773.00071-.08263.08314.083.08285.08299-.08314zm6.200281 0-.08296.08314.08296.08285.0826-.08314zm6.20017 0-.0826.08314.08296.08285.08296-.08314zm-13.176378.000077-.083.08307.083.08285.08299-.08314zm6.200276 0-.08296.08307.08296.08285.08296-.08314zm6.200218 0-.08296.08307.08296.08285.08296-.08314zm-12.789222.03276.000145.083-.04149-.04142zm6.200244 0v.083l-.04154-.04142zm6.200205 0v.083l-.04154-.04142zm-12.787576.000713.04149.04142-.04149.04158-.04149-.04142zm6.200212 0 .04154.04142-.04154.04158-.04154-.04142zm6.200278 0 .04154.04142-.04154.04158-.04154-.04142zm-12.78809.000579.000146.083-.04149-.04142zm6.200207 0 .000145.083-.04154-.04142zm6.20029 0v.083l-.04154-.04142zm-12.400205.000074.0415.04142-.0415.04158zm6.200276 0 .0419.04142-.04154.04158zm6.200218 0 .0419.04142-.04154.04158zm-12.787949.000669.04149.04149-.04149.0415-.04149-.04142zm6.200283 0 .04154.04149-.04154.0415-.04154-.04142zm6.200206 0 .04154.04149-.04154.0415-.04154-.04142zm6.200253 0 .04154.04149-.04154.0415-.04154-.04142zm-18.988341.000666.000145.08299-.0415-.04142zm6.200277 0 .000145.08299-.04154-.04142zm6.200182 0v.08299l-.04154-.04142zm6.200278 0v.08299l-.04154-.04142zm-18.600374.000073.04149.04142-.04149.04149zm6.200203 0 .04154.04142-.04154.04149zm6.200254 0 .04154.04142-.04154.04149zm6.200206 0 .04154.04142-.04154.04149zm-18.988117.00067.0415.04142-.0415.04157-.04149-.04143zm6.200173 0 .04154.04142-.04154.04157-.04154-.04143zm6.200206 0 .04154.04142-.04154.04157-.04154-.04143zm6.20029 0 .04154.04142-.04154.04157-.04154-.04143zm-18.988195.000666.000145.08299-.04149-.04142zm.000218 0 .0415.04142-.0415.04158zm6.200021 0 .000145.08299-.04154-.04142zm.000145 0 .04154.04142-.04154.04158zm6.200073 0v.08299l-.04154-.04142zm.000361 0 .0419.04142-.04154.04158zm6.200061 0v.08299l-.04154-.04142zm0 0 .0419.04142-.04154.04158zm-18.98797.000714.04149.04142-.04149.04158-.0415-.04142zm6.200207 0 .04154.04142-.04154.04158-.04154-.04142zm6.200254 0 .04154.04142-.04154.04158-.04154-.04142zm6.200205 0 .04154.04142-.04154.04158-.04154-.04142zm-18.988266.000578.000146.08299-.04149-.04142zm6.200166 0 .000145.08299-.04154-.04142zm6.20029 0v.08299l-.04154-.04142zm6.200218 0v.08299l-.04154-.04142zm-18.600382.000073.04149.04142-.04149.04149zm6.200247 0 .04154.04142-.04154.04149zm6.200206 0 .0419.04142-.04154.04149zm6.20029 0 .0419.04142-.04154.04149zm-18.988234.000666.04149.04142-.04149.04156-.04149-.04142zm6.200278 0 .04154.04142-.04154.04156-.04154-.04142zm6.200218 0 .04154.04142-.04154.04156-.04154-.04142zm6.200278 0 .04154.04142-.04154.04156-.04154-.04142zm-18.988373.000579.000145.08307-.0415-.04142zm6.200285 0 .000144.08307-.04154-.04142zm6.200205 0v.08307l-.04154-.04142zm6.20029 0v.08307l-.04154-.04142zm-18.600417.000072.04149.04142-.04149.04158zm6.200211 0 .04154.04142-.04154.04158zm6.200277 0 .04154.04142-.04118.04158zm6.200218 0 .0419.04142-.04154.04158zm-18.98816.000714.0415.04142-.0415.0415-.04149-.04142zm6.200204 0 .04154.04142-.04154.0415-.04154-.04142zm6.200218 0 .04154.04142-.04154.0415-.04154-.04142zm6.200278 0 .04154.04142-.04154.0415-.04154-.04142zm-18.988299.000578.000145.08299-.04149-.04142zm5.424285 0 .000146.08299-.0415-.04142zm.775926 0 .000144.08299-.04154-.04142zm5.424286 0v.08299l-.04154-.04142zm.775919 0v.08299l-.04154-.04142zm5.424322 0v.08299l-.04154-.04142zm.775932 0v.08299l-.04154-.04142zm-18.600379.000074.0415.04142-.0415.04149zm6.200209 0 .04154.04142-.04154.04149zm6.200242 0 .04154.04142-.04154.04149zm6.200217 0 .04154.04142-.04154.04149zm-13.563838.000669.0415.04142-.0415.04158-.0415-.04142zm.775928 0 .04149.04142-.04149.04158-.04149-.04142zm5.424313 0 .04154.04142-.04154.04158-.04154-.04142zm.775931 0 .04154.04142-.04154.04158-.04154-.04142zm5.424286 0 .04154.04142-.04154.04158-.04154-.04142zm.77592 0 .04154.04142-.04154.04158-.04154-.04142zm-13.563649.000666.04149.04142-.04149.04157zm.775927 0 .0415.04142-.0415.04157zm5.424281 0 .0419.04142-.04154.04157zm.77592 0 .0419.04142-.04154.04157zm5.424286 0 .0419.04142-.04154.04157zm.776004 0 .0419.04142-.04154.04157zm4.583926.01493-.01818.01893.02914.02949c-.0036-.01601-.0072-.0324-.01084-.04831zm-17.955272.04557.166353.165771h-.083l-.08299-.08285-.083.08307h-.08336zm6.200202 0 .166362.165771h-.08296l-.08296-.08285-.08296.08307h-.08296zm6.200254 0 .16635.165771h-.08296l-.08332-.08285-.08296.08307h-.08296zm-12.787692.00043.166353.165697-.08299.000146-.083-.08285-.08299.08314v.000072h-.08299zm6.20017 0 .166351.165697-.08296.000146-.08296-.08285-.0826.08314v.000072h-.08296zm6.20029 0 .165989.165697-.08296.000146-.08296-.08285-.08296.08314v.000072h-.08296zm-12.787987.000935.166353.165698h-.083l-.08299-.08285-.083.08314h-.08299zm6.200237 0 .166362.165698h-.08296l-.08296-.08285-.08296.08314h-.08332zm6.200218 0 .16635.165698h-.08296l-.08296-.08285-.08296.08314h-.08296zm6.20029 0 .16635.165698h-.08296l-.08296-.08285-.08296.08314h-.08296zm-18.988017.000364.166353.165698-.083.000219-.08299-.08285-.08263.08314v.000072h-.08299zm6.200278 0 .165989.165698-.08296.000219-.08296-.08285-.08296.08314v.000072h-.08296zm6.200217 0 .166351.165698-.08296.000219-.08296-.08285-.08296.08314v.000072h-.08296zm6.200278 0 .165989.165698-.08296.000219-.08296-.08285-.08296.08314v.000072h-.08296zm-18.988227.000936.166352.165697h-.08299l-.083-.08278-.08299.08307h-.083zm6.200211 0 .166351.165697h-.08332l-.08296-.08379-.08296.08307h-.08296zm6.200278 0 .16635.165697h-.08296l-.08296-.08278-.08296.08307h-.08296zm6.200218 0 .16635.165697h-.08296l-.08296-.08379-.08296.08307h-.08296zm-18.987943.000367.166353.165771-.08299.000146-.083-.08285-.08299.08314-.000072.000073h-.08336zm6.200204 0 .16635.165771-.08296.000146-.08296-.08285-.08296.08314-.000072.000073h-.08296zm6.200218 0 .16635.165771-.08296.000146-.08332-.08285-.08296.08314v.000073h-.08296zm6.200241 0 .166363.165771-.08296.000146-.08296-.08285-.08296.08314v.000073h-.08296zm-18.988044.001.166352.165698h-.08299l-.083-.08285-.08299.08314h-.08299zm6.200209 0 .16635.165698h-.08296l-.08296-.08285-.08296.08314h-.08296zm6.200242 0 .166362.165698h-.08296l-.08296-.08285-.08296.08314h-.08296zm6.200217 0 .166351.165698h-.08296l-.08296-.08285-.08296.08314h-.08296zm-18.987904.000367.166353.165771-.08299.000146-.083-.08285-.08299.08314-.000072.000072h-.08299zm6.200165 0 .166363.165771-.08296.000146-.08296-.08285-.0826.08314-.000072.000072h-.08296zm6.20029 0 .165989.165771-.08296.000146-.08296-.08285-.08296.08314v.000072h-.08296zm6.200206 0 .166362.165771-.08296.000146-.08296-.08285-.08296.08314v.000072h-.08296zm-18.988225.000936.166354.165771h-.083l-.08299-.08285-.083.08307h-.08299zm6.200281 0 .166351.165771h-.08296l-.08296-.08285-.08296.08307h-.08296zm6.200206 0 .166362.165771h-.08296l-.08296-.08285-.08296.08307h-.08296zm6.20029 0 .16635.165771h-.08296l-.08296-.08285-.08296.08307h-.08296zm-18.988012.00043.166353.165697-.083.00022-.08299-.08292-.08263.08314-.000072.000077h-.083zm6.200273 0 .166362.165697-.08296.00022-.08296-.08292-.08296.08314-.000072.000077h-.08296zm6.200218 0 .16635.165697-.08296.00022-.08296-.08292-.08296.08314v.000077h-.08296zm6.200289 0 .165989.165697-.08296.00022-.08296-.08292-.08296.08314v.000077h-.08296zm-18.988234.000935.166354.165698h-.08299l-.08299-.08285-.08299.08314h-.08299zm6.200207 0 .16635.165698h-.08296l-.08296-.08285-.08296.08314h-.08296zm6.200205 0 .166362.165698h-.08296l-.08296-.08285-.08296.08314h-.08296zm6.20029 0 .16635.165698h-.08296l-.08296-.08387-.08296.08314h-.08296zm-18.987938.000364.166353.165699-.08299.000218-.083-.08285-.08299.08314-.000072.000072h-.083zm6.200211 0 .16635.165699-.08296.000218-.08296-.08285-.08296.08314-.000072.000072h-.08296zm6.20017 0 .16635.165699-.08296.000218-.08296-.08285-.08296.08314v.000072h-.08296zm6.20029 0 .16635.165699-.08296.000218-.08296-.08285-.08296.08314v.000072h-.08296zm-13.563913.000936.166354.165771h-.083l-.08299-.08285-.083.08307h-.08299zm.775921 0 .16635.165698h-.08332l-.08296-.08278-.08296.08307h-.08296zm5.424322 0 .16635.165771h-.08296l-.08296-.08285-.08296.08307h-.08296zm.775931 0 .166351.165698h-.08296l-.08296-.08278-.08296.08307h-.08296zm5.424286 0 .166351.165771h-.08296l-.08296-.08285-.08296.08307h-.08296zm.77592 0 .16635.165698h-.08296l-.08296-.08278-.08296.08307h-.08296zm-12.787724.000367.166352.165771-.08299.000145-.08336-.08285-.08263.08314-.000074.000074h-.08299zm6.200275 0 .166362.165771-.08296.000145-.08296-.08285-.08296.08314v.000074h-.08296zm6.200218 0 .16635.165771-.08296.000145-.08296-.08285-.0826.08314v.000074h-.08296zm-13.176385.000073.166353.165698-.08299.000145-.083-.08285-.08299.08314-.000074.000078h-.08299zm6.200247 0 .165989.165698-.08296.000145-.08332-.08285-.0826.08314v.000078h-.08296zm6.200206 0 .16635.165698-.08296.000145-.08296-.08285-.08296.08314v.000078h-.08296zm-12.788926.115829.04149.04157h-.08299zm6.200273 0 .04154.04157h-.082959zm6.200181 0 .04154.04157h-.08296zm-12.78769.000713.04149.04158h-.083zm6.200169 0 .04154.04158h-.08296zm6.20029 0 .04154.04158h-.08296zm-12.78795.000667.04149.04158h-.083zm6.200212 0 .04154.04158h-.08296zm6.200278 0 .04154.04158h-.08296zm6.200217 0 .04154.04158h-.08296zm-18.988015.000712.04149.04149h-.08299zm6.200277 0 .04154.04149h-.08296zm6.200217 0 .04154.04149h-.08296zm6.200278 0 .04154.04149h-.08296zm-18.988226.00058.04149.04156h-.083zm6.200282 0 .04154.04156h-.08296zm6.200206 0 .04154.04156h-.08296zm6.200218 0 .04154.04156h-.08296zm-18.987941.000712.04149.04158h-.083zm6.200202 0 .04154.04158h-.08296zm6.200217 0 .04154.04158h-.08296zm6.200242 0 .04154.04158h-.08296zm-18.988043.000667.04149.04158h-.08299zm6.200244 0 .04154.04158h-.08296zm6.200206 0 .04154.04158h-.08296zm6.200289 0 .04154.04158h-.08296zm-18.987975.000713.0415.0415h-.083zm6.200164 0 .04154.0415h-.08296zm6.20029 0 .04154.0415h-.08296zm6.200218 0 .04154.0415h-.08296zm-18.988163.000579.04149.04165h-.083zm6.200207 0 .04154.04165h-.08296zm6.20029 0 .04154.04165h-.08296zm6.200206 0 .04154.04165h-.08296zm-18.988011.00071.04149.04158h-.08299zm6.200284 0 .04154.04158h-.08296zm6.200205 0 .04154.04158h-.08296zm6.20029 0 .04154.04158h-.08296zm-18.988233.00067.04149.04158h-.083zm6.200205 0 .04154.04158h-.08296zm6.20029 0 .04154.04158h-.08296zm6.20017 0 .04154.04158h-.08296zm-18.9879.000709.04149.04149h-.083zm6.200209 0 .04154.04149h-.08332zm6.200169 0 .04154.04149h-.08296zm6.20029 0 .04154.04149h-.08296zm-13.563838.00058.0415.04165h-.08299zm.775895 0 .04154.04158h-.08296zm5.424273 0 .04154.04165h-.08296zm.775932 0 .04154.04158h-.08296zm5.424286 0 .04154.04165h-.08296zm.775992 0 .04154.04158h-.08296zm-13.563722.000714.04149.04157h-.083zm.775927 0 .04149.04157h-.083zm5.424354 0 .04154.04157h-.08296zm.77592 0 .04154.04157h-.08296zm5.424286 0 .04154.04157h-.08296zm.775931 0 .04154.04157h-.08296zm-32.1270634 10.095974v11.237709a2.8094274 2.8094274 0 0 0 2.809427 2.809427h11.2377084m0-50.5696902h-11.2377084a2.8094274 2.8094274 0 0 0 -2.809427 2.8094266v11.2377086m36.5225574 36.522555h11.237706a2.8094274 2.8094274 0 0 0 2.809423-2.809427v-11.237709m0-22.475419v-11.2377086a2.8094274 2.8094274 0 0 0 -2.809423-2.8094269h-11.237706" fill="#3636c9" stroke-width="1.20404"/><rect fill="none" height="56" ry=".443911" width="56"/></svg>